<?xml version="1.0" encoding="UTF-8"?>
<svg xmlns="http://www.w3.org/2000/svg" width="1400" height="900" viewBox="0 0 1400 900">
  <defs>
    <marker id="arrow" markerWidth="8" markerHeight="8" refX="6" refY="3" orient="auto">
      <path d="M0,0 L6,3 L0,6 Z" fill="#22303c"/>
    </marker>
    <style>
      .title{font:700 28px Arial;fill:#102a43}.h{font:700 18px Arial;fill:#102a43}
      .t{font:15px Arial;fill:#243b53}.small{font:13px Arial;fill:#486581}
      .dim{stroke:#22303c;stroke-width:1.5;marker-end:url(#arrow);marker-start:url(#arrow)}
      .datum{stroke:#d64545;stroke-width:2;stroke-dasharray:7 5}.hold{fill:#fff4e6;stroke:#d97706;stroke-width:2;stroke-dasharray:8 5}
      .bus{fill:#d9eaf7;stroke:#1f5f8b;stroke-width:2}.m3r{fill:#d9f2e6;stroke:#24734b;stroke-width:2}
      .witness{stroke:#744fc6;stroke-width:5;fill:none}.panel{fill:#e7e3fa;stroke:#5b44a8;stroke-width:2}
      .cand{fill:#ffe1c2;stroke:#b3541e;stroke-width:2.5}
      .flange{fill:#ececec;stroke:#6b7280;stroke-width:2;stroke-dasharray:5 4}
      .hidden{stroke:#486581;stroke-width:1.5;stroke-dasharray:6 4;fill:none}
      .hole{fill:white;stroke:#24734b;stroke-width:2}
      .holeB{fill:white;stroke:#1f5f8b;stroke-width:2}
    </style>
  </defs>
  <rect x="8" y="8" width="1384" height="884" fill="white" stroke="#102a43" stroke-width="2"/>
  <text x="40" y="55" class="title">D05 — M3R STAGE A INTERFACE RING (Rev-B)</text>
  <text x="40" y="82" class="h" fill="#d64545">DESIGN RELEASE CANDIDATE · NOT TO SCALE · NOT FOR MANUFACTURE · NO FLIGHT OR QUALIFICATION CLAIM</text>
  <text x="60" y="118" class="h">Plan view in M3R_LOCAL (looking -Z; +Z toward B601) — 2.0 px/mm</text>
  <circle cx="420" cy="500" r="150" class="m3r"/>
  <circle cx="420" cy="500" r="100.6" class="hidden"/>
  <circle cx="420" cy="500" r="99.6" class="hidden"/>
  <circle cx="420" cy="500" r="40" class="hidden"/>
  <text x="548" y="428" class="small">OD 150.0 (A-001)</text>
  <text x="500" y="392" class="small">skirt ID 100.6 (A-006)</text>
  <text x="376" y="466" class="small">passage 40.0 (A-007)</text>
  <text x="180" y="646" class="small">spigot dia 99.6 (A-005, hidden)</text>
  <circle cx="535.5" cy="452.2" r="5.5" class="hole"/>
  <circle cx="467.8" cy="384.5" r="5.5" class="hole"/>
  <circle cx="372.2" cy="384.5" r="5.5" class="hole"/>
  <circle cx="304.5" cy="452.2" r="5.5" class="hole"/>
  <circle cx="304.5" cy="547.8" r="5.5" class="hole"/>
  <circle cx="372.2" cy="615.5" r="5.5" class="hole"/>
  <circle cx="467.8" cy="615.5" r="5.5" class="hole"/>
  <circle cx="535.5" cy="547.8" r="5.5" class="hole"/>
  <text x="522" y="350" class="small">8x dia 5.5 M5 interstage @ R62.5, start 22.5° (A-015..018)</text>
  <circle cx="450.99" cy="415.12" r="7.5" class="hidden"/>
  <circle cx="450.99" cy="415.12" r="4.6" class="holeB"/>
  <circle cx="334.98" cy="469.22" r="7.5" class="hidden"/>
  <circle cx="334.98" cy="469.22" r="4.6" class="holeB"/>
  <circle cx="389.08" cy="585.22" r="7.5" class="hidden"/>
  <circle cx="389.08" cy="585.22" r="4.6" class="holeB"/>
  <circle cx="505.08" cy="531.13" r="7.5" class="hidden"/>
  <circle cx="505.08" cy="531.13" r="4.6" class="holeB"/>
  <polygon points="450.99,415.12 334.98,469.22 389.08,585.22 505.08,531.13 450.99,415.12" fill="none" stroke="#1f5f8b" stroke-width="1.5" stroke-dasharray="6 4"/>
  <text x="470" y="250" class="small">4x M4-class (HM4-75) dia 4.6 thru + dia 7.5 cbore x 4.5 deep</text>
  <text x="470" y="272" class="small">as-built centres (A-011); nominal 64 x 64 square clocked 25.000014°</text>
  <text x="470" y="294" class="small">best-fit PCD 90.509642 mm; pattern centre YZ (0.015994151, -0.086366070)</text>
  <circle cx="530.0" cy="500.0" r="4.1" fill="none" stroke="#b3541e" stroke-width="2" stroke-dasharray="4 3"/>
  <text x="540" y="510" class="small">dowel clearance dia 4.1 @ (55.0, 0.0) — CANDIDATE (A-019/020)</text>
  <text x="850" y="118" class="h">Axial section schematic (8 px/mm axial)</text>
  <rect x="880" y="180" width="300" height="44.8" class="m3r"/>
  <rect x="880" y="180" width="300" height="19.2" fill="#b8e4cf" stroke="#24734b" stroke-width="2"/>
  <text x="900" y="170" class="small">proud flange 2.405 (A-002) + recess 5.595 (A-003) = 8.0 total (A-004)</text>
  <line x1="880" y1="140" x2="880" y2="260" class="datum"/>
  <text x="700" y="135" class="small">208.0 physical install face (M3R_LOCAL z=0)</text>
  <line x1="1180" y1="140" x2="1180" y2="260" class="datum"/>
  <text x="1060" y="128" class="small">210.405 screw-end plane</text>
  <line x1="880" y1="290" x2="1180" y2="290" class="dim"/>
  <text x="990" y="312" class="small">2.405</text>
  <rect x="850" y="360" width="520" height="250" fill="#f0f7ff" stroke="#1f5f8b" stroke-width="2"/>
  <text x="868" y="390" class="h">DESIGN DATA (sources: M3R_STAGE_A_PARAMETER_TABLE.yaml)</text>
  <text x="868" y="418" class="small">• volume 127784.800333 mm3 (A-022, DERIVED, independent reopen)</text>
  <text x="868" y="442" class="small">• material-derived mass 345.018961 g — INACTIVE, not budget, not measured (A-023)</text>
  <text x="868" y="466" class="small">• M3R assembly mass authority 0.7619 kg DESIGN_BUDGET conf B (ODR-05);</text>
  <text x="880" y="488" class="small">stage split PENDING_SIBLING_HASH wp2_design_mass/SYSTEM_DESIGN_MASS_PROPERTIES_V1.yaml</text>
  <text x="868" y="512" class="small">• material AL6061-T6 CANDIDATE → binding PENDING_SIBLING_HASH wp6_material_selection/DESIGN_MATERIAL_SELECTION_V1.yaml</text>
  <text x="868" y="536" class="small">• tolerances → binding PENDING_SIBLING_HASH wp3_tolerance_alloc/DRAWING_TOLERANCE_SCHEME_V1.csv</text>
  <text x="868" y="560" class="small">• fasteners/preload → binding PENDING_SIBLING_HASH wp4_fastener_design/M3R_FASTENER_DESIGN_V1.yaml</text>
  <text x="868" y="584" class="small">• M6 WC stackup evidence: wp3_tolerance/INTERFACE_STACKUP_B601_M3R_EXECUTED_V1.yaml</text>
  <rect x="850" y="640" width="520" height="200" fill="#fff7ed" stroke="#d64545" stroke-width="2"/>
  <text x="868" y="670" class="h">RELEASE BOUNDARY</text>
  <text x="868" y="698" class="small">• ALL_MANUFACTURING_TOLERANCES_HOLD → WP3 contract (not on this sheet)</text>
  <text x="868" y="722" class="small">• physical fitup HOLD; no FEA/MoS claim on this sheet</text>
  <text x="868" y="746" class="small">• no procurement, manufacturing, flight, or qualification claim</text>
  <text x="868" y="770" class="small">• candidate ≠ authority; design ≠ flight-qualified</text>
  <text x="868" y="794" class="small">• L0 URDF mass never overridden (MSR-STR-001)</text>
  <text x="40" y="880" class="small">Units: mm. Frame authority: ODR-01 (T_SM=[185.25,0,0] mm + Ry(90°)); feature stations are a geometric stack only. Generated: 2026-08-22T01:29:27+08:00</text>
</svg>
