M48
; DRILL file KiCad 10.0.6 date 2026-09-14T01:55:50
; FORMAT={-:-/ absolute / metric / decimal}
; #@! TF.CreationDate,2026-09-14T01:55:50+09:00
; #@! TF.GenerationSoftware,Kicad,Pcbnew,10.0.6
; #@! TF.FileFunction,MixedPlating,1,2
FMAT,2
METRIC
; #@! TA.AperFunction,Plated,PTH,ViaDrill
T1C0.300
; #@! TA.AperFunction,Plated,PTH,ViaDrill
T2C0.400
; #@! TA.AperFunction,Plated,PTH,ComponentDrill
T3C1.020
; #@! TA.AperFunction,NonPlated,NPTH,ComponentDrill
T4C2.700
; #@! TA.AperFunction,NonPlated,NPTH,ComponentDrill
T5C3.000
%
G90
G05
T1
X23.8Y-16.225
X28.9Y-18.9
X28.9Y-20.0
X28.9Y-21.1
X30.0Y-18.9
X30.0Y-20.0
X30.0Y-21.1
X31.1Y-18.9
X31.1Y-20.0
X31.1Y-21.1
X33.8Y-22.275
X36.2Y-15.325
T2
X16.0Y-10.15
X44.0Y-10.11
T3
X5.0Y-17.0
X8.0Y-17.0
X52.0Y-17.0
X55.0Y-17.0
T4
X3.5Y-3.5
X3.5Y-36.5
X56.5Y-3.5
X56.5Y-36.5
T5
X12.32Y-17.0
X47.68Y-17.0
M30
