%TF.GenerationSoftware,KiCad,Pcbnew,10.0.6*%
%TF.CreationDate,2026-09-14T01:55:47+09:00*%
%TF.ProjectId,wp10_aux_protection,77703130-5f61-4757-985f-70726f746563,rev?*%
%TF.SameCoordinates,Original*%
%TF.FileFunction,Copper,L1,Top*%
%TF.FilePolarity,Positive*%
%FSLAX46Y46*%
G04 Gerber Fmt 4.6, Leading zero omitted, Abs format (unit mm)*
G04 Created by KiCad (PCBNEW 10.0.6) date 2026-09-14 01:55:47*
%MOMM*%
%LPD*%
G01*
G04 APERTURE LIST*
G04 Aperture macros list*
%AMRoundRect*
0 Rectangle with rounded corners*
0 $1 Rounding radius*
0 $2 $3 $4 $5 $6 $7 $8 $9 X,Y pos of 4 corners*
0 Add a 4 corners polygon primitive as box body*
4,1,4,$2,$3,$4,$5,$6,$7,$8,$9,$2,$3,0*
0 Add four circle primitives for the rounded corners*
1,1,$1+$1,$2,$3*
1,1,$1+$1,$4,$5*
1,1,$1+$1,$6,$7*
1,1,$1+$1,$8,$9*
0 Add four rect primitives between the rounded corners*
20,1,$1+$1,$2,$3,$4,$5,0*
20,1,$1+$1,$4,$5,$6,$7,0*
20,1,$1+$1,$6,$7,$8,$9,0*
20,1,$1+$1,$8,$9,$2,$3,0*%
G04 Aperture macros list end*
%TA.AperFunction,SMDPad,CuDef*%
%ADD10RoundRect,0.250000X1.100000X-0.325000X1.100000X0.325000X-1.100000X0.325000X-1.100000X-0.325000X0*%
%TD*%
%TA.AperFunction,SMDPad,CuDef*%
%ADD11RoundRect,0.200000X-0.200000X-0.275000X0.200000X-0.275000X0.200000X0.275000X-0.200000X0.275000X0*%
%TD*%
%TA.AperFunction,SMDPad,CuDef*%
%ADD12RoundRect,0.250000X-0.325000X-1.100000X0.325000X-1.100000X0.325000X1.100000X-0.325000X1.100000X0*%
%TD*%
%TA.AperFunction,ComponentPad*%
%ADD13RoundRect,0.250001X0.499999X-0.499999X0.499999X0.499999X-0.499999X0.499999X-0.499999X-0.499999X0*%
%TD*%
%TA.AperFunction,ComponentPad*%
%ADD14C,1.500000*%
%TD*%
%TA.AperFunction,SMDPad,CuDef*%
%ADD15R,2.180000X1.620000*%
%TD*%
%TA.AperFunction,SMDPad,CuDef*%
%ADD16C,1.500000*%
%TD*%
%TA.AperFunction,ComponentPad*%
%ADD17RoundRect,0.250001X-0.499999X0.499999X-0.499999X-0.499999X0.499999X-0.499999X0.499999X0.499999X0*%
%TD*%
%TA.AperFunction,SMDPad,CuDef*%
%ADD18RoundRect,0.112500X-0.637500X-0.112500X0.637500X-0.112500X0.637500X0.112500X-0.637500X0.112500X0*%
%TD*%
%TA.AperFunction,SMDPad,CuDef*%
%ADD19R,3.400000X5.000000*%
%TD*%
%TA.AperFunction,SMDPad,CuDef*%
%ADD20R,2.300000X2.500000*%
%TD*%
%TA.AperFunction,ViaPad*%
%ADD21C,0.600000*%
%TD*%
%TA.AperFunction,ViaPad*%
%ADD22C,0.800000*%
%TD*%
%TA.AperFunction,Conductor*%
%ADD23C,1.500000*%
%TD*%
%TA.AperFunction,Conductor*%
%ADD24C,1.200000*%
%TD*%
%TA.AperFunction,Conductor*%
%ADD25C,0.400000*%
%TD*%
%TA.AperFunction,Conductor*%
%ADD26C,0.250000*%
%TD*%
%TA.AperFunction,Conductor*%
%ADD27C,0.200000*%
%TD*%
%TA.AperFunction,Conductor*%
%ADD28C,2.000000*%
%TD*%
G04 APERTURE END LIST*
D10*
%TO.P,C215,1*%
%TO.N,WP10_AUX_LIMITED*%
X36200000Y-18275000D03*
%TO.P,C215,2*%
%TO.N,WP10_INPUT_RETURN*%
X36200000Y-15325000D03*
%TD*%
D11*
%TO.P,R224,1*%
%TO.N,WP10_AUX_MODE*%
X22675000Y-24800000D03*
%TO.P,R224,2*%
%TO.N,WP10_AUX_PROTECT_RTN*%
X24325000Y-24800000D03*
%TD*%
D12*
%TO.P,C216,1*%
%TO.N,WP10_AUX_DVDT*%
X36525000Y-21500000D03*
%TO.P,C216,2*%
%TO.N,WP10_AUX_PROTECT_RTN*%
X39475000Y-21500000D03*
%TD*%
D11*
%TO.P,R223,1*%
%TO.N,WP10_AUX_ILIM*%
X35875000Y-25000000D03*
%TO.P,R223,2*%
%TO.N,WP10_AUX_PROTECT_RTN*%
X37525000Y-25000000D03*
%TD*%
D13*
%TO.P,J209,1*%
%TO.N,WP10_AUX_LIMITED*%
X52000000Y-17000000D03*
D14*
%TO.P,J209,2*%
%TO.N,WP10_INPUT_RETURN*%
X55000000Y-17000000D03*
%TD*%
D15*
%TO.P,D208,1*%
%TO.N,WP10_AUX_LIMITED*%
X44000000Y-5890000D03*
%TO.P,D208,2*%
%TO.N,WP10_INPUT_RETURN*%
X44000000Y-10110000D03*
%TD*%
D10*
%TO.P,C214,1*%
%TO.N,WP10_AUX_FUSED*%
X23800000Y-19175000D03*
%TO.P,C214,2*%
%TO.N,WP10_INPUT_RETURN*%
X23800000Y-16225000D03*
%TD*%
D16*
%TO.P,J210,1*%
%TO.N,WP10_AUX_RESET*%
X22000000Y-31000000D03*
%TO.P,J210,2*%
%TO.N,WP10_AUX_PROTECT_RTN*%
X24540000Y-31000000D03*
%TD*%
D17*
%TO.P,J208,1*%
%TO.N,WP10_AUX_FUSED*%
X8000000Y-17000000D03*
D14*
%TO.P,J208,2*%
%TO.N,WP10_INPUT_RETURN*%
X5000000Y-17000000D03*
%TD*%
D18*
%TO.P,U207,1*%
%TO.N,WP10_AUX_FUSED*%
X27100000Y-17725000D03*
%TO.P,U207,2*%
X27100000Y-18375000D03*
%TO.P,U207,3*%
%TO.N,WP10_AUX_PROTECT_RTN*%
X27100000Y-19025000D03*
%TO.P,U207,4*%
%TO.N,unconnected-(U207-NC-Pad4)*%
X27100000Y-19675000D03*
%TO.P,U207,5*%
%TO.N,WP10_AUX_PROTECT_RTN*%
X27100000Y-20325000D03*
%TO.P,U207,6*%
%TO.N,WP10_AUX_MODE*%
X27100000Y-20975000D03*
%TO.P,U207,7*%
%TO.N,WP10_AUX_RESET*%
X27100000Y-21625000D03*
%TO.P,U207,8*%
%TO.N,WP10_AUX_PROTECT_RTN*%
X27100000Y-22275000D03*
%TO.P,U207,9*%
%TO.N,WP10_INPUT_RETURN*%
X32900000Y-22275000D03*
%TO.P,U207,10*%
%TO.N,unconnected-(U207-IMON-Pad10)*%
X32900000Y-21625000D03*
%TO.P,U207,11*%
%TO.N,WP10_AUX_ILIM*%
X32900000Y-20975000D03*
%TO.P,U207,12*%
%TO.N,WP10_AUX_DVDT*%
X32900000Y-20325000D03*
%TO.P,U207,13*%
%TO.N,unconnected-(U207-NC-Pad13)*%
X32900000Y-19675000D03*
%TO.P,U207,14*%
%TO.N,unconnected-(U207-FLT-Pad14)*%
X32900000Y-19025000D03*
%TO.P,U207,15*%
%TO.N,WP10_AUX_LIMITED*%
X32900000Y-18375000D03*
%TO.P,U207,16*%
X32900000Y-17725000D03*
D19*
%TO.P,U207,17*%
%TO.N,WP10_AUX_PROTECT_RTN*%
X30000000Y-20000000D03*
%TD*%
D20*
%TO.P,D207,1*%
%TO.N,WP10_INPUT_RETURN*%
X16000000Y-10150000D03*
%TO.P,D207,2*%
%TO.N,WP10_AUX_FUSED*%
X16000000Y-5850000D03*
%TD*%
D21*
%TO.N,WP10_INPUT_RETURN*%
X33800000Y-22275000D03*
D22*
X16000000Y-10150000D03*
D21*
X23800000Y-16225000D03*
X36200000Y-15325000D03*
D22*
X44000000Y-10110000D03*
D21*
%TO.N,WP10_AUX_PROTECT_RTN*%
X28900000Y-20000000D03*
X30000000Y-21100000D03*
X28900000Y-21100000D03*
X30000000Y-18900000D03*
X31100000Y-21100000D03*
X31100000Y-20000000D03*
X31100000Y-18900000D03*
X28900000Y-18900000D03*
X30000000Y-20000000D03*
%TD*%
%TO.N,WP10_AUX_LIMITED*%
D23*
X52000000Y-5890000D02*
X52000000Y-17000000D01*
X44000000Y-5890000D02*
X52000000Y-5890000D01*
D24*
X34500000Y-17725000D02*
X34500000Y-18375000D01*
D23*
X40800000Y-5890000D02*
X44000000Y-5890000D01*
D25*
X32900000Y-17725000D02*
X34500000Y-17725000D01*
D23*
X40800000Y-18275000D02*
X40800000Y-5890000D01*
X36200000Y-18275000D02*
X40800000Y-18275000D01*
D25*
X32900000Y-18375000D02*
X34500000Y-18375000D01*
D24*
X34500000Y-18375000D02*
X36200000Y-18275000D01*
%TO.N,WP10_INPUT_RETURN*%
D26*
X32900000Y-22275000D02*
X33800000Y-22275000D01*
%TO.N,WP10_AUX_MODE*%
D27*
X27100000Y-20975000D02*
X26375900Y-20975000D01*
X26375900Y-20975000D02*
X22675000Y-24675900D01*
X22675000Y-24675900D02*
X22675000Y-24800000D01*
%TO.N,WP10_AUX_PROTECT_RTN*%
X35907900Y-26617100D02*
X31525000Y-31000000D01*
X39475000Y-23050000D02*
X37525000Y-25000000D01*
X31525000Y-31000000D02*
X24540000Y-31000000D01*
X24325000Y-24800000D02*
X25544800Y-24800000D01*
X39475000Y-21500000D02*
X39475000Y-23050000D01*
X35907900Y-26617100D02*
X31902500Y-26617100D01*
X27100000Y-20325000D02*
X28575000Y-20325000D01*
X25544800Y-24800000D02*
X27815100Y-22529700D01*
X27815100Y-22275000D02*
X27100000Y-22275000D01*
X37525000Y-25000000D02*
X35907900Y-26617100D01*
X28900000Y-18900000D02*
X28775000Y-19025000D01*
X31902500Y-26617100D02*
X27815100Y-22529700D01*
X28900000Y-21100000D02*
X28900000Y-21190100D01*
X28775000Y-19025000D02*
X27100000Y-19025000D01*
X27815100Y-22529700D02*
X27815100Y-22275000D01*
X28900000Y-21190100D02*
X27815100Y-22275000D01*
X28575000Y-20325000D02*
X28900000Y-20000000D01*
%TO.N,WP10_AUX_DVDT*%
X32900000Y-20325000D02*
X35350000Y-20325000D01*
X35350000Y-20325000D02*
X36525000Y-21500000D01*
%TO.N,WP10_AUX_ILIM*%
X32900000Y-20975000D02*
X33605900Y-20975000D01*
X35875000Y-23244100D02*
X35875000Y-25000000D01*
X33605900Y-20975000D02*
X35875000Y-23244100D01*
%TO.N,WP10_AUX_FUSED*%
D23*
X25200000Y-18375000D02*
X25200000Y-17725000D01*
D28*
X8000000Y-17000000D02*
X8000000Y-5850000D01*
D23*
X19500000Y-5850000D02*
X19500000Y-19175000D01*
X16000000Y-5850000D02*
X19500000Y-5850000D01*
X25200000Y-19175000D02*
X25200000Y-18375000D01*
X23800000Y-19175000D02*
X25200000Y-19175000D01*
X19500000Y-19175000D02*
X23800000Y-19175000D01*
D25*
X27100000Y-18375000D02*
X25200000Y-18375000D01*
D28*
X8000000Y-5850000D02*
X16000000Y-5850000D01*
D25*
X27100000Y-17725000D02*
X25200000Y-17725000D01*
%TO.N,WP10_AUX_RESET*%
D27*
X23489800Y-29510200D02*
X22000000Y-31000000D01*
X27100000Y-21625000D02*
X26305200Y-21625000D01*
X26305200Y-21625000D02*
X23489800Y-24440400D01*
X23489800Y-24440400D02*
X23489800Y-29510200D01*
%TD*%
M02*
