%TF.GenerationSoftware,KiCad,Pcbnew,10.0.6*%
%TF.CreationDate,2026-09-14T01:55:47+09:00*%
%TF.ProjectId,wp10_aux_protection,77703130-5f61-4757-985f-70726f746563,rev?*%
%TF.SameCoordinates,Original*%
%TF.FileFunction,Legend,Top*%
%TF.FilePolarity,Positive*%
%FSLAX46Y46*%
G04 Gerber Fmt 4.6, Leading zero omitted, Abs format (unit mm)*
G04 Created by KiCad (PCBNEW 10.0.6) date 2026-09-14 01:55:47*
%MOMM*%
%LPD*%
G01*
G04 APERTURE LIST*
%ADD10C,0.120000*%
%ADD11C,0.150000*%
G04 APERTURE END LIST*
D10*
X4550000Y-27938688D02*
X4250000Y-27938688D01*
X4250000Y-28410117D02*
X4250000Y-27510117D01*
X4250000Y-27510117D02*
X4678572Y-27510117D01*
X4978572Y-27595831D02*
X5021429Y-27552974D01*
X5021429Y-27552974D02*
X5107144Y-27510117D01*
X5107144Y-27510117D02*
X5321429Y-27510117D01*
X5321429Y-27510117D02*
X5407144Y-27552974D01*
X5407144Y-27552974D02*
X5450001Y-27595831D01*
X5450001Y-27595831D02*
X5492858Y-27681545D01*
X5492858Y-27681545D02*
X5492858Y-27767260D01*
X5492858Y-27767260D02*
X5450001Y-27895831D01*
X5450001Y-27895831D02*
X4935715Y-28410117D01*
X4935715Y-28410117D02*
X5492858Y-28410117D01*
X6050001Y-27510117D02*
X6135715Y-27510117D01*
X6135715Y-27510117D02*
X6221429Y-27552974D01*
X6221429Y-27552974D02*
X6264287Y-27595831D01*
X6264287Y-27595831D02*
X6307144Y-27681545D01*
X6307144Y-27681545D02*
X6350001Y-27852974D01*
X6350001Y-27852974D02*
X6350001Y-28067260D01*
X6350001Y-28067260D02*
X6307144Y-28238688D01*
X6307144Y-28238688D02*
X6264287Y-28324402D01*
X6264287Y-28324402D02*
X6221429Y-28367260D01*
X6221429Y-28367260D02*
X6135715Y-28410117D01*
X6135715Y-28410117D02*
X6050001Y-28410117D01*
X6050001Y-28410117D02*
X5964287Y-28367260D01*
X5964287Y-28367260D02*
X5921429Y-28324402D01*
X5921429Y-28324402D02*
X5878572Y-28238688D01*
X5878572Y-28238688D02*
X5835715Y-28067260D01*
X5835715Y-28067260D02*
X5835715Y-27852974D01*
X5835715Y-27852974D02*
X5878572Y-27681545D01*
X5878572Y-27681545D02*
X5921429Y-27595831D01*
X5921429Y-27595831D02*
X5964287Y-27552974D01*
X5964287Y-27552974D02*
X6050001Y-27510117D01*
X6692858Y-27595831D02*
X6735715Y-27552974D01*
X6735715Y-27552974D02*
X6821430Y-27510117D01*
X6821430Y-27510117D02*
X7035715Y-27510117D01*
X7035715Y-27510117D02*
X7121430Y-27552974D01*
X7121430Y-27552974D02*
X7164287Y-27595831D01*
X7164287Y-27595831D02*
X7207144Y-27681545D01*
X7207144Y-27681545D02*
X7207144Y-27767260D01*
X7207144Y-27767260D02*
X7164287Y-27895831D01*
X7164287Y-27895831D02*
X6650001Y-28410117D01*
X6650001Y-28410117D02*
X7207144Y-28410117D01*
X8278572Y-28410117D02*
X8278572Y-27510117D01*
X8707143Y-28410117D02*
X8707143Y-27510117D01*
X8707143Y-27510117D02*
X9221429Y-28410117D01*
X9221429Y-28410117D02*
X9221429Y-27510117D01*
X9650000Y-28410117D02*
X9650000Y-27510117D01*
X9650000Y-27510117D02*
X9992857Y-27510117D01*
X9992857Y-27510117D02*
X10078572Y-27552974D01*
X10078572Y-27552974D02*
X10121429Y-27595831D01*
X10121429Y-27595831D02*
X10164286Y-27681545D01*
X10164286Y-27681545D02*
X10164286Y-27810117D01*
X10164286Y-27810117D02*
X10121429Y-27895831D01*
X10121429Y-27895831D02*
X10078572Y-27938688D01*
X10078572Y-27938688D02*
X9992857Y-27981545D01*
X9992857Y-27981545D02*
X9650000Y-27981545D01*
X10550000Y-27510117D02*
X10550000Y-28238688D01*
X10550000Y-28238688D02*
X10592857Y-28324402D01*
X10592857Y-28324402D02*
X10635715Y-28367260D01*
X10635715Y-28367260D02*
X10721429Y-28410117D01*
X10721429Y-28410117D02*
X10892857Y-28410117D01*
X10892857Y-28410117D02*
X10978572Y-28367260D01*
X10978572Y-28367260D02*
X11021429Y-28324402D01*
X11021429Y-28324402D02*
X11064286Y-28238688D01*
X11064286Y-28238688D02*
X11064286Y-27510117D01*
X11364286Y-27510117D02*
X11878572Y-27510117D01*
X11621429Y-28410117D02*
X11621429Y-27510117D01*
X20678572Y-1010117D02*
X20892858Y-1910117D01*
X20892858Y-1910117D02*
X21064286Y-1267260D01*
X21064286Y-1267260D02*
X21235715Y-1910117D01*
X21235715Y-1910117D02*
X21450001Y-1010117D01*
X21792857Y-1910117D02*
X21792857Y-1010117D01*
X21792857Y-1010117D02*
X22135714Y-1010117D01*
X22135714Y-1010117D02*
X22221429Y-1052974D01*
X22221429Y-1052974D02*
X22264286Y-1095831D01*
X22264286Y-1095831D02*
X22307143Y-1181545D01*
X22307143Y-1181545D02*
X22307143Y-1310117D01*
X22307143Y-1310117D02*
X22264286Y-1395831D01*
X22264286Y-1395831D02*
X22221429Y-1438688D01*
X22221429Y-1438688D02*
X22135714Y-1481545D01*
X22135714Y-1481545D02*
X21792857Y-1481545D01*
X23164286Y-1910117D02*
X22650000Y-1910117D01*
X22907143Y-1910117D02*
X22907143Y-1010117D01*
X22907143Y-1010117D02*
X22821429Y-1138688D01*
X22821429Y-1138688D02*
X22735714Y-1224402D01*
X22735714Y-1224402D02*
X22650000Y-1267260D01*
X23721429Y-1010117D02*
X23807143Y-1010117D01*
X23807143Y-1010117D02*
X23892857Y-1052974D01*
X23892857Y-1052974D02*
X23935715Y-1095831D01*
X23935715Y-1095831D02*
X23978572Y-1181545D01*
X23978572Y-1181545D02*
X24021429Y-1352974D01*
X24021429Y-1352974D02*
X24021429Y-1567260D01*
X24021429Y-1567260D02*
X23978572Y-1738688D01*
X23978572Y-1738688D02*
X23935715Y-1824402D01*
X23935715Y-1824402D02*
X23892857Y-1867260D01*
X23892857Y-1867260D02*
X23807143Y-1910117D01*
X23807143Y-1910117D02*
X23721429Y-1910117D01*
X23721429Y-1910117D02*
X23635715Y-1867260D01*
X23635715Y-1867260D02*
X23592857Y-1824402D01*
X23592857Y-1824402D02*
X23550000Y-1738688D01*
X23550000Y-1738688D02*
X23507143Y-1567260D01*
X23507143Y-1567260D02*
X23507143Y-1352974D01*
X23507143Y-1352974D02*
X23550000Y-1181545D01*
X23550000Y-1181545D02*
X23592857Y-1095831D01*
X23592857Y-1095831D02*
X23635715Y-1052974D01*
X23635715Y-1052974D02*
X23721429Y-1010117D01*
X24964286Y-1010117D02*
X25264286Y-1910117D01*
X25264286Y-1910117D02*
X25564286Y-1010117D01*
X25778572Y-1010117D02*
X26335715Y-1010117D01*
X26335715Y-1010117D02*
X26035715Y-1352974D01*
X26035715Y-1352974D02*
X26164286Y-1352974D01*
X26164286Y-1352974D02*
X26250001Y-1395831D01*
X26250001Y-1395831D02*
X26292858Y-1438688D01*
X26292858Y-1438688D02*
X26335715Y-1524402D01*
X26335715Y-1524402D02*
X26335715Y-1738688D01*
X26335715Y-1738688D02*
X26292858Y-1824402D01*
X26292858Y-1824402D02*
X26250001Y-1867260D01*
X26250001Y-1867260D02*
X26164286Y-1910117D01*
X26164286Y-1910117D02*
X25907143Y-1910117D01*
X25907143Y-1910117D02*
X25821429Y-1867260D01*
X25821429Y-1867260D02*
X25778572Y-1824402D01*
X27107144Y-1310117D02*
X27107144Y-1910117D01*
X26892858Y-967260D02*
X26678572Y-1610117D01*
X26678572Y-1610117D02*
X27235715Y-1610117D01*
X28221429Y-1652974D02*
X28650001Y-1652974D01*
X28135715Y-1910117D02*
X28435715Y-1010117D01*
X28435715Y-1010117D02*
X28735715Y-1910117D01*
X29035715Y-1010117D02*
X29035715Y-1738688D01*
X29035715Y-1738688D02*
X29078572Y-1824402D01*
X29078572Y-1824402D02*
X29121430Y-1867260D01*
X29121430Y-1867260D02*
X29207144Y-1910117D01*
X29207144Y-1910117D02*
X29378572Y-1910117D01*
X29378572Y-1910117D02*
X29464287Y-1867260D01*
X29464287Y-1867260D02*
X29507144Y-1824402D01*
X29507144Y-1824402D02*
X29550001Y-1738688D01*
X29550001Y-1738688D02*
X29550001Y-1010117D01*
X29892858Y-1010117D02*
X30492858Y-1910117D01*
X30492858Y-1010117D02*
X29892858Y-1910117D01*
X31521429Y-1910117D02*
X31521429Y-1010117D01*
X31521429Y-1010117D02*
X31864286Y-1010117D01*
X31864286Y-1010117D02*
X31950001Y-1052974D01*
X31950001Y-1052974D02*
X31992858Y-1095831D01*
X31992858Y-1095831D02*
X32035715Y-1181545D01*
X32035715Y-1181545D02*
X32035715Y-1310117D01*
X32035715Y-1310117D02*
X31992858Y-1395831D01*
X31992858Y-1395831D02*
X31950001Y-1438688D01*
X31950001Y-1438688D02*
X31864286Y-1481545D01*
X31864286Y-1481545D02*
X31521429Y-1481545D01*
X32935715Y-1910117D02*
X32635715Y-1481545D01*
X32421429Y-1910117D02*
X32421429Y-1010117D01*
X32421429Y-1010117D02*
X32764286Y-1010117D01*
X32764286Y-1010117D02*
X32850001Y-1052974D01*
X32850001Y-1052974D02*
X32892858Y-1095831D01*
X32892858Y-1095831D02*
X32935715Y-1181545D01*
X32935715Y-1181545D02*
X32935715Y-1310117D01*
X32935715Y-1310117D02*
X32892858Y-1395831D01*
X32892858Y-1395831D02*
X32850001Y-1438688D01*
X32850001Y-1438688D02*
X32764286Y-1481545D01*
X32764286Y-1481545D02*
X32421429Y-1481545D01*
X33492858Y-1010117D02*
X33664286Y-1010117D01*
X33664286Y-1010117D02*
X33750001Y-1052974D01*
X33750001Y-1052974D02*
X33835715Y-1138688D01*
X33835715Y-1138688D02*
X33878572Y-1310117D01*
X33878572Y-1310117D02*
X33878572Y-1610117D01*
X33878572Y-1610117D02*
X33835715Y-1781545D01*
X33835715Y-1781545D02*
X33750001Y-1867260D01*
X33750001Y-1867260D02*
X33664286Y-1910117D01*
X33664286Y-1910117D02*
X33492858Y-1910117D01*
X33492858Y-1910117D02*
X33407144Y-1867260D01*
X33407144Y-1867260D02*
X33321429Y-1781545D01*
X33321429Y-1781545D02*
X33278572Y-1610117D01*
X33278572Y-1610117D02*
X33278572Y-1310117D01*
X33278572Y-1310117D02*
X33321429Y-1138688D01*
X33321429Y-1138688D02*
X33407144Y-1052974D01*
X33407144Y-1052974D02*
X33492858Y-1010117D01*
X34135715Y-1010117D02*
X34650001Y-1010117D01*
X34392858Y-1910117D02*
X34392858Y-1010117D01*
X34950000Y-1438688D02*
X35250000Y-1438688D01*
X35378572Y-1910117D02*
X34950000Y-1910117D01*
X34950000Y-1910117D02*
X34950000Y-1010117D01*
X34950000Y-1010117D02*
X35378572Y-1010117D01*
X36278572Y-1824402D02*
X36235715Y-1867260D01*
X36235715Y-1867260D02*
X36107143Y-1910117D01*
X36107143Y-1910117D02*
X36021429Y-1910117D01*
X36021429Y-1910117D02*
X35892858Y-1867260D01*
X35892858Y-1867260D02*
X35807143Y-1781545D01*
X35807143Y-1781545D02*
X35764286Y-1695831D01*
X35764286Y-1695831D02*
X35721429Y-1524402D01*
X35721429Y-1524402D02*
X35721429Y-1395831D01*
X35721429Y-1395831D02*
X35764286Y-1224402D01*
X35764286Y-1224402D02*
X35807143Y-1138688D01*
X35807143Y-1138688D02*
X35892858Y-1052974D01*
X35892858Y-1052974D02*
X36021429Y-1010117D01*
X36021429Y-1010117D02*
X36107143Y-1010117D01*
X36107143Y-1010117D02*
X36235715Y-1052974D01*
X36235715Y-1052974D02*
X36278572Y-1095831D01*
X36535715Y-1010117D02*
X37050001Y-1010117D01*
X36792858Y-1910117D02*
X36792858Y-1010117D01*
X37350000Y-1910117D02*
X37350000Y-1010117D01*
X37950000Y-1010117D02*
X38121428Y-1010117D01*
X38121428Y-1010117D02*
X38207143Y-1052974D01*
X38207143Y-1052974D02*
X38292857Y-1138688D01*
X38292857Y-1138688D02*
X38335714Y-1310117D01*
X38335714Y-1310117D02*
X38335714Y-1610117D01*
X38335714Y-1610117D02*
X38292857Y-1781545D01*
X38292857Y-1781545D02*
X38207143Y-1867260D01*
X38207143Y-1867260D02*
X38121428Y-1910117D01*
X38121428Y-1910117D02*
X37950000Y-1910117D01*
X37950000Y-1910117D02*
X37864286Y-1867260D01*
X37864286Y-1867260D02*
X37778571Y-1781545D01*
X37778571Y-1781545D02*
X37735714Y-1610117D01*
X37735714Y-1610117D02*
X37735714Y-1310117D01*
X37735714Y-1310117D02*
X37778571Y-1138688D01*
X37778571Y-1138688D02*
X37864286Y-1052974D01*
X37864286Y-1052974D02*
X37950000Y-1010117D01*
X38721428Y-1910117D02*
X38721428Y-1010117D01*
X38721428Y-1010117D02*
X39235714Y-1910117D01*
X39235714Y-1910117D02*
X39235714Y-1010117D01*
X26314286Y-38410117D02*
X26014286Y-37981545D01*
X25800000Y-38410117D02*
X25800000Y-37510117D01*
X25800000Y-37510117D02*
X26142857Y-37510117D01*
X26142857Y-37510117D02*
X26228572Y-37552974D01*
X26228572Y-37552974D02*
X26271429Y-37595831D01*
X26271429Y-37595831D02*
X26314286Y-37681545D01*
X26314286Y-37681545D02*
X26314286Y-37810117D01*
X26314286Y-37810117D02*
X26271429Y-37895831D01*
X26271429Y-37895831D02*
X26228572Y-37938688D01*
X26228572Y-37938688D02*
X26142857Y-37981545D01*
X26142857Y-37981545D02*
X25800000Y-37981545D01*
X26700000Y-37938688D02*
X27000000Y-37938688D01*
X27128572Y-38410117D02*
X26700000Y-38410117D01*
X26700000Y-38410117D02*
X26700000Y-37510117D01*
X26700000Y-37510117D02*
X27128572Y-37510117D01*
X27385715Y-37510117D02*
X27685715Y-38410117D01*
X27685715Y-38410117D02*
X27985715Y-37510117D01*
X28285715Y-38410117D02*
X28285715Y-37510117D01*
X28714286Y-37938688D02*
X29014286Y-37938688D01*
X29142858Y-38410117D02*
X28714286Y-38410117D01*
X28714286Y-38410117D02*
X28714286Y-37510117D01*
X28714286Y-37510117D02*
X29142858Y-37510117D01*
X29442858Y-37510117D02*
X29657144Y-38410117D01*
X29657144Y-38410117D02*
X29828572Y-37767260D01*
X29828572Y-37767260D02*
X30000001Y-38410117D01*
X30000001Y-38410117D02*
X30214287Y-37510117D01*
X31414286Y-37510117D02*
X31585714Y-37510117D01*
X31585714Y-37510117D02*
X31671429Y-37552974D01*
X31671429Y-37552974D02*
X31757143Y-37638688D01*
X31757143Y-37638688D02*
X31800000Y-37810117D01*
X31800000Y-37810117D02*
X31800000Y-38110117D01*
X31800000Y-38110117D02*
X31757143Y-38281545D01*
X31757143Y-38281545D02*
X31671429Y-38367260D01*
X31671429Y-38367260D02*
X31585714Y-38410117D01*
X31585714Y-38410117D02*
X31414286Y-38410117D01*
X31414286Y-38410117D02*
X31328572Y-38367260D01*
X31328572Y-38367260D02*
X31242857Y-38281545D01*
X31242857Y-38281545D02*
X31200000Y-38110117D01*
X31200000Y-38110117D02*
X31200000Y-37810117D01*
X31200000Y-37810117D02*
X31242857Y-37638688D01*
X31242857Y-37638688D02*
X31328572Y-37552974D01*
X31328572Y-37552974D02*
X31414286Y-37510117D01*
X32185714Y-38410117D02*
X32185714Y-37510117D01*
X32185714Y-37510117D02*
X32700000Y-38410117D01*
X32700000Y-38410117D02*
X32700000Y-37510117D01*
X33557143Y-38410117D02*
X33128571Y-38410117D01*
X33128571Y-38410117D02*
X33128571Y-37510117D01*
X34028571Y-37981545D02*
X34028571Y-38410117D01*
X33728571Y-37510117D02*
X34028571Y-37981545D01*
X34028571Y-37981545D02*
X34328571Y-37510117D01*
X28635715Y-35410117D02*
X28335715Y-34981545D01*
X28121429Y-35410117D02*
X28121429Y-34510117D01*
X28121429Y-34510117D02*
X28464286Y-34510117D01*
X28464286Y-34510117D02*
X28550001Y-34552974D01*
X28550001Y-34552974D02*
X28592858Y-34595831D01*
X28592858Y-34595831D02*
X28635715Y-34681545D01*
X28635715Y-34681545D02*
X28635715Y-34810117D01*
X28635715Y-34810117D02*
X28592858Y-34895831D01*
X28592858Y-34895831D02*
X28550001Y-34938688D01*
X28550001Y-34938688D02*
X28464286Y-34981545D01*
X28464286Y-34981545D02*
X28121429Y-34981545D01*
X28892858Y-34510117D02*
X29407144Y-34510117D01*
X29150001Y-35410117D02*
X29150001Y-34510117D01*
X29707143Y-35410117D02*
X29707143Y-34510117D01*
X29707143Y-34510117D02*
X30221429Y-35410117D01*
X30221429Y-35410117D02*
X30221429Y-34510117D01*
X31335714Y-35324402D02*
X31378571Y-35367260D01*
X31378571Y-35367260D02*
X31335714Y-35410117D01*
X31335714Y-35410117D02*
X31292857Y-35367260D01*
X31292857Y-35367260D02*
X31335714Y-35324402D01*
X31335714Y-35324402D02*
X31335714Y-35410117D01*
X31335714Y-35067260D02*
X31292857Y-34552974D01*
X31292857Y-34552974D02*
X31335714Y-34510117D01*
X31335714Y-34510117D02*
X31378571Y-34552974D01*
X31378571Y-34552974D02*
X31335714Y-35067260D01*
X31335714Y-35067260D02*
X31335714Y-34510117D01*
X31764285Y-34938688D02*
X32450000Y-34938688D01*
X32450000Y-35195831D02*
X31764285Y-35195831D01*
X34035714Y-34552974D02*
X33950000Y-34510117D01*
X33950000Y-34510117D02*
X33821428Y-34510117D01*
X33821428Y-34510117D02*
X33692857Y-34552974D01*
X33692857Y-34552974D02*
X33607142Y-34638688D01*
X33607142Y-34638688D02*
X33564285Y-34724402D01*
X33564285Y-34724402D02*
X33521428Y-34895831D01*
X33521428Y-34895831D02*
X33521428Y-35024402D01*
X33521428Y-35024402D02*
X33564285Y-35195831D01*
X33564285Y-35195831D02*
X33607142Y-35281545D01*
X33607142Y-35281545D02*
X33692857Y-35367260D01*
X33692857Y-35367260D02*
X33821428Y-35410117D01*
X33821428Y-35410117D02*
X33907142Y-35410117D01*
X33907142Y-35410117D02*
X34035714Y-35367260D01*
X34035714Y-35367260D02*
X34078571Y-35324402D01*
X34078571Y-35324402D02*
X34078571Y-35024402D01*
X34078571Y-35024402D02*
X33907142Y-35024402D01*
X34464285Y-35410117D02*
X34464285Y-34510117D01*
X34464285Y-34510117D02*
X34978571Y-35410117D01*
X34978571Y-35410117D02*
X34978571Y-34510117D01*
X35407142Y-35410117D02*
X35407142Y-34510117D01*
X35407142Y-34510117D02*
X35621428Y-34510117D01*
X35621428Y-34510117D02*
X35749999Y-34552974D01*
X35749999Y-34552974D02*
X35835714Y-34638688D01*
X35835714Y-34638688D02*
X35878571Y-34724402D01*
X35878571Y-34724402D02*
X35921428Y-34895831D01*
X35921428Y-34895831D02*
X35921428Y-35024402D01*
X35921428Y-35024402D02*
X35878571Y-35195831D01*
X35878571Y-35195831D02*
X35835714Y-35281545D01*
X35835714Y-35281545D02*
X35749999Y-35367260D01*
X35749999Y-35367260D02*
X35621428Y-35410117D01*
X35621428Y-35410117D02*
X35407142Y-35410117D01*
X49642858Y-27510117D02*
X50157144Y-27510117D01*
X49900001Y-28410117D02*
X49900001Y-27510117D01*
X50628572Y-27510117D02*
X50800000Y-27510117D01*
X50800000Y-27510117D02*
X50885715Y-27552974D01*
X50885715Y-27552974D02*
X50971429Y-27638688D01*
X50971429Y-27638688D02*
X51014286Y-27810117D01*
X51014286Y-27810117D02*
X51014286Y-28110117D01*
X51014286Y-28110117D02*
X50971429Y-28281545D01*
X50971429Y-28281545D02*
X50885715Y-28367260D01*
X50885715Y-28367260D02*
X50800000Y-28410117D01*
X50800000Y-28410117D02*
X50628572Y-28410117D01*
X50628572Y-28410117D02*
X50542858Y-28367260D01*
X50542858Y-28367260D02*
X50457143Y-28281545D01*
X50457143Y-28281545D02*
X50414286Y-28110117D01*
X50414286Y-28110117D02*
X50414286Y-27810117D01*
X50414286Y-27810117D02*
X50457143Y-27638688D01*
X50457143Y-27638688D02*
X50542858Y-27552974D01*
X50542858Y-27552974D02*
X50628572Y-27510117D01*
X51957143Y-27510117D02*
X52471429Y-27510117D01*
X52214286Y-28410117D02*
X52214286Y-27510117D01*
X52771428Y-28410117D02*
X52771428Y-27510117D01*
X52771428Y-27938688D02*
X53285714Y-27938688D01*
X53285714Y-28410117D02*
X53285714Y-27510117D01*
X53714285Y-28410117D02*
X53714285Y-27510117D01*
X53714285Y-27510117D02*
X54228571Y-28410117D01*
X54228571Y-28410117D02*
X54228571Y-27510117D01*
X36104762Y-12787664D02*
X36066666Y-12825760D01*
X36066666Y-12825760D02*
X35952381Y-12863855D01*
X35952381Y-12863855D02*
X35876190Y-12863855D01*
X35876190Y-12863855D02*
X35761904Y-12825760D01*
X35761904Y-12825760D02*
X35685714Y-12749569D01*
X35685714Y-12749569D02*
X35647619Y-12673379D01*
X35647619Y-12673379D02*
X35609523Y-12520998D01*
X35609523Y-12520998D02*
X35609523Y-12406712D01*
X35609523Y-12406712D02*
X35647619Y-12254331D01*
X35647619Y-12254331D02*
X35685714Y-12178140D01*
X35685714Y-12178140D02*
X35761904Y-12101950D01*
X35761904Y-12101950D02*
X35876190Y-12063855D01*
X35876190Y-12063855D02*
X35952381Y-12063855D01*
X35952381Y-12063855D02*
X36066666Y-12101950D01*
X36066666Y-12101950D02*
X36104762Y-12140045D01*
X36409523Y-12140045D02*
X36447619Y-12101950D01*
X36447619Y-12101950D02*
X36523809Y-12063855D01*
X36523809Y-12063855D02*
X36714285Y-12063855D01*
X36714285Y-12063855D02*
X36790476Y-12101950D01*
X36790476Y-12101950D02*
X36828571Y-12140045D01*
X36828571Y-12140045D02*
X36866666Y-12216236D01*
X36866666Y-12216236D02*
X36866666Y-12292426D01*
X36866666Y-12292426D02*
X36828571Y-12406712D01*
X36828571Y-12406712D02*
X36371428Y-12863855D01*
X36371428Y-12863855D02*
X36866666Y-12863855D01*
X37628571Y-12863855D02*
X37171428Y-12863855D01*
X37400000Y-12863855D02*
X37400000Y-12063855D01*
X37400000Y-12063855D02*
X37323809Y-12178140D01*
X37323809Y-12178140D02*
X37247619Y-12254331D01*
X37247619Y-12254331D02*
X37171428Y-12292426D01*
X38352381Y-12063855D02*
X37971429Y-12063855D01*
X37971429Y-12063855D02*
X37933333Y-12444807D01*
X37933333Y-12444807D02*
X37971429Y-12406712D01*
X37971429Y-12406712D02*
X38047619Y-12368617D01*
X38047619Y-12368617D02*
X38238095Y-12368617D01*
X38238095Y-12368617D02*
X38314286Y-12406712D01*
X38314286Y-12406712D02*
X38352381Y-12444807D01*
X38352381Y-12444807D02*
X38390476Y-12520998D01*
X38390476Y-12520998D02*
X38390476Y-12711474D01*
X38390476Y-12711474D02*
X38352381Y-12787664D01*
X38352381Y-12787664D02*
X38314286Y-12825760D01*
X38314286Y-12825760D02*
X38238095Y-12863855D01*
X38238095Y-12863855D02*
X38047619Y-12863855D01*
X38047619Y-12863855D02*
X37971429Y-12825760D01*
X37971429Y-12825760D02*
X37933333Y-12787664D01*
X22604762Y-27363855D02*
X22338095Y-26982902D01*
X22147619Y-27363855D02*
X22147619Y-26563855D01*
X22147619Y-26563855D02*
X22452381Y-26563855D01*
X22452381Y-26563855D02*
X22528571Y-26601950D01*
X22528571Y-26601950D02*
X22566666Y-26640045D01*
X22566666Y-26640045D02*
X22604762Y-26716236D01*
X22604762Y-26716236D02*
X22604762Y-26830521D01*
X22604762Y-26830521D02*
X22566666Y-26906712D01*
X22566666Y-26906712D02*
X22528571Y-26944807D01*
X22528571Y-26944807D02*
X22452381Y-26982902D01*
X22452381Y-26982902D02*
X22147619Y-26982902D01*
X22909523Y-26640045D02*
X22947619Y-26601950D01*
X22947619Y-26601950D02*
X23023809Y-26563855D01*
X23023809Y-26563855D02*
X23214285Y-26563855D01*
X23214285Y-26563855D02*
X23290476Y-26601950D01*
X23290476Y-26601950D02*
X23328571Y-26640045D01*
X23328571Y-26640045D02*
X23366666Y-26716236D01*
X23366666Y-26716236D02*
X23366666Y-26792426D01*
X23366666Y-26792426D02*
X23328571Y-26906712D01*
X23328571Y-26906712D02*
X22871428Y-27363855D01*
X22871428Y-27363855D02*
X23366666Y-27363855D01*
X23671428Y-26640045D02*
X23709524Y-26601950D01*
X23709524Y-26601950D02*
X23785714Y-26563855D01*
X23785714Y-26563855D02*
X23976190Y-26563855D01*
X23976190Y-26563855D02*
X24052381Y-26601950D01*
X24052381Y-26601950D02*
X24090476Y-26640045D01*
X24090476Y-26640045D02*
X24128571Y-26716236D01*
X24128571Y-26716236D02*
X24128571Y-26792426D01*
X24128571Y-26792426D02*
X24090476Y-26906712D01*
X24090476Y-26906712D02*
X23633333Y-27363855D01*
X23633333Y-27363855D02*
X24128571Y-27363855D01*
X24814286Y-26830521D02*
X24814286Y-27363855D01*
X24623810Y-26525760D02*
X24433333Y-27097188D01*
X24433333Y-27097188D02*
X24928572Y-27097188D01*
X41604762Y-23787664D02*
X41566666Y-23825760D01*
X41566666Y-23825760D02*
X41452381Y-23863855D01*
X41452381Y-23863855D02*
X41376190Y-23863855D01*
X41376190Y-23863855D02*
X41261904Y-23825760D01*
X41261904Y-23825760D02*
X41185714Y-23749569D01*
X41185714Y-23749569D02*
X41147619Y-23673379D01*
X41147619Y-23673379D02*
X41109523Y-23520998D01*
X41109523Y-23520998D02*
X41109523Y-23406712D01*
X41109523Y-23406712D02*
X41147619Y-23254331D01*
X41147619Y-23254331D02*
X41185714Y-23178140D01*
X41185714Y-23178140D02*
X41261904Y-23101950D01*
X41261904Y-23101950D02*
X41376190Y-23063855D01*
X41376190Y-23063855D02*
X41452381Y-23063855D01*
X41452381Y-23063855D02*
X41566666Y-23101950D01*
X41566666Y-23101950D02*
X41604762Y-23140045D01*
X41909523Y-23140045D02*
X41947619Y-23101950D01*
X41947619Y-23101950D02*
X42023809Y-23063855D01*
X42023809Y-23063855D02*
X42214285Y-23063855D01*
X42214285Y-23063855D02*
X42290476Y-23101950D01*
X42290476Y-23101950D02*
X42328571Y-23140045D01*
X42328571Y-23140045D02*
X42366666Y-23216236D01*
X42366666Y-23216236D02*
X42366666Y-23292426D01*
X42366666Y-23292426D02*
X42328571Y-23406712D01*
X42328571Y-23406712D02*
X41871428Y-23863855D01*
X41871428Y-23863855D02*
X42366666Y-23863855D01*
X43128571Y-23863855D02*
X42671428Y-23863855D01*
X42900000Y-23863855D02*
X42900000Y-23063855D01*
X42900000Y-23063855D02*
X42823809Y-23178140D01*
X42823809Y-23178140D02*
X42747619Y-23254331D01*
X42747619Y-23254331D02*
X42671428Y-23292426D01*
X43814286Y-23063855D02*
X43661905Y-23063855D01*
X43661905Y-23063855D02*
X43585714Y-23101950D01*
X43585714Y-23101950D02*
X43547619Y-23140045D01*
X43547619Y-23140045D02*
X43471429Y-23254331D01*
X43471429Y-23254331D02*
X43433333Y-23406712D01*
X43433333Y-23406712D02*
X43433333Y-23711474D01*
X43433333Y-23711474D02*
X43471429Y-23787664D01*
X43471429Y-23787664D02*
X43509524Y-23825760D01*
X43509524Y-23825760D02*
X43585714Y-23863855D01*
X43585714Y-23863855D02*
X43738095Y-23863855D01*
X43738095Y-23863855D02*
X43814286Y-23825760D01*
X43814286Y-23825760D02*
X43852381Y-23787664D01*
X43852381Y-23787664D02*
X43890476Y-23711474D01*
X43890476Y-23711474D02*
X43890476Y-23520998D01*
X43890476Y-23520998D02*
X43852381Y-23444807D01*
X43852381Y-23444807D02*
X43814286Y-23406712D01*
X43814286Y-23406712D02*
X43738095Y-23368617D01*
X43738095Y-23368617D02*
X43585714Y-23368617D01*
X43585714Y-23368617D02*
X43509524Y-23406712D01*
X43509524Y-23406712D02*
X43471429Y-23444807D01*
X43471429Y-23444807D02*
X43433333Y-23520998D01*
X35804762Y-28363855D02*
X35538095Y-27982902D01*
X35347619Y-28363855D02*
X35347619Y-27563855D01*
X35347619Y-27563855D02*
X35652381Y-27563855D01*
X35652381Y-27563855D02*
X35728571Y-27601950D01*
X35728571Y-27601950D02*
X35766666Y-27640045D01*
X35766666Y-27640045D02*
X35804762Y-27716236D01*
X35804762Y-27716236D02*
X35804762Y-27830521D01*
X35804762Y-27830521D02*
X35766666Y-27906712D01*
X35766666Y-27906712D02*
X35728571Y-27944807D01*
X35728571Y-27944807D02*
X35652381Y-27982902D01*
X35652381Y-27982902D02*
X35347619Y-27982902D01*
X36109523Y-27640045D02*
X36147619Y-27601950D01*
X36147619Y-27601950D02*
X36223809Y-27563855D01*
X36223809Y-27563855D02*
X36414285Y-27563855D01*
X36414285Y-27563855D02*
X36490476Y-27601950D01*
X36490476Y-27601950D02*
X36528571Y-27640045D01*
X36528571Y-27640045D02*
X36566666Y-27716236D01*
X36566666Y-27716236D02*
X36566666Y-27792426D01*
X36566666Y-27792426D02*
X36528571Y-27906712D01*
X36528571Y-27906712D02*
X36071428Y-28363855D01*
X36071428Y-28363855D02*
X36566666Y-28363855D01*
X36871428Y-27640045D02*
X36909524Y-27601950D01*
X36909524Y-27601950D02*
X36985714Y-27563855D01*
X36985714Y-27563855D02*
X37176190Y-27563855D01*
X37176190Y-27563855D02*
X37252381Y-27601950D01*
X37252381Y-27601950D02*
X37290476Y-27640045D01*
X37290476Y-27640045D02*
X37328571Y-27716236D01*
X37328571Y-27716236D02*
X37328571Y-27792426D01*
X37328571Y-27792426D02*
X37290476Y-27906712D01*
X37290476Y-27906712D02*
X36833333Y-28363855D01*
X36833333Y-28363855D02*
X37328571Y-28363855D01*
X37595238Y-27563855D02*
X38090476Y-27563855D01*
X38090476Y-27563855D02*
X37823810Y-27868617D01*
X37823810Y-27868617D02*
X37938095Y-27868617D01*
X37938095Y-27868617D02*
X38014286Y-27906712D01*
X38014286Y-27906712D02*
X38052381Y-27944807D01*
X38052381Y-27944807D02*
X38090476Y-28020998D01*
X38090476Y-28020998D02*
X38090476Y-28211474D01*
X38090476Y-28211474D02*
X38052381Y-28287664D01*
X38052381Y-28287664D02*
X38014286Y-28325760D01*
X38014286Y-28325760D02*
X37938095Y-28363855D01*
X37938095Y-28363855D02*
X37709524Y-28363855D01*
X37709524Y-28363855D02*
X37633333Y-28325760D01*
X37633333Y-28325760D02*
X37595238Y-28287664D01*
X50971428Y-22563855D02*
X50971428Y-23135283D01*
X50971428Y-23135283D02*
X50933333Y-23249569D01*
X50933333Y-23249569D02*
X50857142Y-23325760D01*
X50857142Y-23325760D02*
X50742857Y-23363855D01*
X50742857Y-23363855D02*
X50666666Y-23363855D01*
X51314285Y-22640045D02*
X51352381Y-22601950D01*
X51352381Y-22601950D02*
X51428571Y-22563855D01*
X51428571Y-22563855D02*
X51619047Y-22563855D01*
X51619047Y-22563855D02*
X51695238Y-22601950D01*
X51695238Y-22601950D02*
X51733333Y-22640045D01*
X51733333Y-22640045D02*
X51771428Y-22716236D01*
X51771428Y-22716236D02*
X51771428Y-22792426D01*
X51771428Y-22792426D02*
X51733333Y-22906712D01*
X51733333Y-22906712D02*
X51276190Y-23363855D01*
X51276190Y-23363855D02*
X51771428Y-23363855D01*
X52266667Y-22563855D02*
X52342857Y-22563855D01*
X52342857Y-22563855D02*
X52419048Y-22601950D01*
X52419048Y-22601950D02*
X52457143Y-22640045D01*
X52457143Y-22640045D02*
X52495238Y-22716236D01*
X52495238Y-22716236D02*
X52533333Y-22868617D01*
X52533333Y-22868617D02*
X52533333Y-23059093D01*
X52533333Y-23059093D02*
X52495238Y-23211474D01*
X52495238Y-23211474D02*
X52457143Y-23287664D01*
X52457143Y-23287664D02*
X52419048Y-23325760D01*
X52419048Y-23325760D02*
X52342857Y-23363855D01*
X52342857Y-23363855D02*
X52266667Y-23363855D01*
X52266667Y-23363855D02*
X52190476Y-23325760D01*
X52190476Y-23325760D02*
X52152381Y-23287664D01*
X52152381Y-23287664D02*
X52114286Y-23211474D01*
X52114286Y-23211474D02*
X52076190Y-23059093D01*
X52076190Y-23059093D02*
X52076190Y-22868617D01*
X52076190Y-22868617D02*
X52114286Y-22716236D01*
X52114286Y-22716236D02*
X52152381Y-22640045D01*
X52152381Y-22640045D02*
X52190476Y-22601950D01*
X52190476Y-22601950D02*
X52266667Y-22563855D01*
X52914286Y-23363855D02*
X53066667Y-23363855D01*
X53066667Y-23363855D02*
X53142857Y-23325760D01*
X53142857Y-23325760D02*
X53180953Y-23287664D01*
X53180953Y-23287664D02*
X53257143Y-23173379D01*
X53257143Y-23173379D02*
X53295238Y-23020998D01*
X53295238Y-23020998D02*
X53295238Y-22716236D01*
X53295238Y-22716236D02*
X53257143Y-22640045D01*
X53257143Y-22640045D02*
X53219048Y-22601950D01*
X53219048Y-22601950D02*
X53142857Y-22563855D01*
X53142857Y-22563855D02*
X52990476Y-22563855D01*
X52990476Y-22563855D02*
X52914286Y-22601950D01*
X52914286Y-22601950D02*
X52876191Y-22640045D01*
X52876191Y-22640045D02*
X52838095Y-22716236D01*
X52838095Y-22716236D02*
X52838095Y-22906712D01*
X52838095Y-22906712D02*
X52876191Y-22982902D01*
X52876191Y-22982902D02*
X52914286Y-23020998D01*
X52914286Y-23020998D02*
X52990476Y-23059093D01*
X52990476Y-23059093D02*
X53142857Y-23059093D01*
X53142857Y-23059093D02*
X53219048Y-23020998D01*
X53219048Y-23020998D02*
X53257143Y-22982902D01*
X53257143Y-22982902D02*
X53295238Y-22906712D01*
X42647619Y-3863855D02*
X42647619Y-3063855D01*
X42647619Y-3063855D02*
X42838095Y-3063855D01*
X42838095Y-3063855D02*
X42952381Y-3101950D01*
X42952381Y-3101950D02*
X43028571Y-3178140D01*
X43028571Y-3178140D02*
X43066666Y-3254331D01*
X43066666Y-3254331D02*
X43104762Y-3406712D01*
X43104762Y-3406712D02*
X43104762Y-3520998D01*
X43104762Y-3520998D02*
X43066666Y-3673379D01*
X43066666Y-3673379D02*
X43028571Y-3749569D01*
X43028571Y-3749569D02*
X42952381Y-3825760D01*
X42952381Y-3825760D02*
X42838095Y-3863855D01*
X42838095Y-3863855D02*
X42647619Y-3863855D01*
X43409523Y-3140045D02*
X43447619Y-3101950D01*
X43447619Y-3101950D02*
X43523809Y-3063855D01*
X43523809Y-3063855D02*
X43714285Y-3063855D01*
X43714285Y-3063855D02*
X43790476Y-3101950D01*
X43790476Y-3101950D02*
X43828571Y-3140045D01*
X43828571Y-3140045D02*
X43866666Y-3216236D01*
X43866666Y-3216236D02*
X43866666Y-3292426D01*
X43866666Y-3292426D02*
X43828571Y-3406712D01*
X43828571Y-3406712D02*
X43371428Y-3863855D01*
X43371428Y-3863855D02*
X43866666Y-3863855D01*
X44361905Y-3063855D02*
X44438095Y-3063855D01*
X44438095Y-3063855D02*
X44514286Y-3101950D01*
X44514286Y-3101950D02*
X44552381Y-3140045D01*
X44552381Y-3140045D02*
X44590476Y-3216236D01*
X44590476Y-3216236D02*
X44628571Y-3368617D01*
X44628571Y-3368617D02*
X44628571Y-3559093D01*
X44628571Y-3559093D02*
X44590476Y-3711474D01*
X44590476Y-3711474D02*
X44552381Y-3787664D01*
X44552381Y-3787664D02*
X44514286Y-3825760D01*
X44514286Y-3825760D02*
X44438095Y-3863855D01*
X44438095Y-3863855D02*
X44361905Y-3863855D01*
X44361905Y-3863855D02*
X44285714Y-3825760D01*
X44285714Y-3825760D02*
X44247619Y-3787664D01*
X44247619Y-3787664D02*
X44209524Y-3711474D01*
X44209524Y-3711474D02*
X44171428Y-3559093D01*
X44171428Y-3559093D02*
X44171428Y-3368617D01*
X44171428Y-3368617D02*
X44209524Y-3216236D01*
X44209524Y-3216236D02*
X44247619Y-3140045D01*
X44247619Y-3140045D02*
X44285714Y-3101950D01*
X44285714Y-3101950D02*
X44361905Y-3063855D01*
X45085714Y-3406712D02*
X45009524Y-3368617D01*
X45009524Y-3368617D02*
X44971429Y-3330521D01*
X44971429Y-3330521D02*
X44933333Y-3254331D01*
X44933333Y-3254331D02*
X44933333Y-3216236D01*
X44933333Y-3216236D02*
X44971429Y-3140045D01*
X44971429Y-3140045D02*
X45009524Y-3101950D01*
X45009524Y-3101950D02*
X45085714Y-3063855D01*
X45085714Y-3063855D02*
X45238095Y-3063855D01*
X45238095Y-3063855D02*
X45314286Y-3101950D01*
X45314286Y-3101950D02*
X45352381Y-3140045D01*
X45352381Y-3140045D02*
X45390476Y-3216236D01*
X45390476Y-3216236D02*
X45390476Y-3254331D01*
X45390476Y-3254331D02*
X45352381Y-3330521D01*
X45352381Y-3330521D02*
X45314286Y-3368617D01*
X45314286Y-3368617D02*
X45238095Y-3406712D01*
X45238095Y-3406712D02*
X45085714Y-3406712D01*
X45085714Y-3406712D02*
X45009524Y-3444807D01*
X45009524Y-3444807D02*
X44971429Y-3482902D01*
X44971429Y-3482902D02*
X44933333Y-3559093D01*
X44933333Y-3559093D02*
X44933333Y-3711474D01*
X44933333Y-3711474D02*
X44971429Y-3787664D01*
X44971429Y-3787664D02*
X45009524Y-3825760D01*
X45009524Y-3825760D02*
X45085714Y-3863855D01*
X45085714Y-3863855D02*
X45238095Y-3863855D01*
X45238095Y-3863855D02*
X45314286Y-3825760D01*
X45314286Y-3825760D02*
X45352381Y-3787664D01*
X45352381Y-3787664D02*
X45390476Y-3711474D01*
X45390476Y-3711474D02*
X45390476Y-3559093D01*
X45390476Y-3559093D02*
X45352381Y-3482902D01*
X45352381Y-3482902D02*
X45314286Y-3444807D01*
X45314286Y-3444807D02*
X45238095Y-3406712D01*
X21104762Y-14287664D02*
X21066666Y-14325760D01*
X21066666Y-14325760D02*
X20952381Y-14363855D01*
X20952381Y-14363855D02*
X20876190Y-14363855D01*
X20876190Y-14363855D02*
X20761904Y-14325760D01*
X20761904Y-14325760D02*
X20685714Y-14249569D01*
X20685714Y-14249569D02*
X20647619Y-14173379D01*
X20647619Y-14173379D02*
X20609523Y-14020998D01*
X20609523Y-14020998D02*
X20609523Y-13906712D01*
X20609523Y-13906712D02*
X20647619Y-13754331D01*
X20647619Y-13754331D02*
X20685714Y-13678140D01*
X20685714Y-13678140D02*
X20761904Y-13601950D01*
X20761904Y-13601950D02*
X20876190Y-13563855D01*
X20876190Y-13563855D02*
X20952381Y-13563855D01*
X20952381Y-13563855D02*
X21066666Y-13601950D01*
X21066666Y-13601950D02*
X21104762Y-13640045D01*
X21409523Y-13640045D02*
X21447619Y-13601950D01*
X21447619Y-13601950D02*
X21523809Y-13563855D01*
X21523809Y-13563855D02*
X21714285Y-13563855D01*
X21714285Y-13563855D02*
X21790476Y-13601950D01*
X21790476Y-13601950D02*
X21828571Y-13640045D01*
X21828571Y-13640045D02*
X21866666Y-13716236D01*
X21866666Y-13716236D02*
X21866666Y-13792426D01*
X21866666Y-13792426D02*
X21828571Y-13906712D01*
X21828571Y-13906712D02*
X21371428Y-14363855D01*
X21371428Y-14363855D02*
X21866666Y-14363855D01*
X22628571Y-14363855D02*
X22171428Y-14363855D01*
X22400000Y-14363855D02*
X22400000Y-13563855D01*
X22400000Y-13563855D02*
X22323809Y-13678140D01*
X22323809Y-13678140D02*
X22247619Y-13754331D01*
X22247619Y-13754331D02*
X22171428Y-13792426D01*
X23314286Y-13830521D02*
X23314286Y-14363855D01*
X23123810Y-13525760D02*
X22933333Y-14097188D01*
X22933333Y-14097188D02*
X23428572Y-14097188D01*
X20971428Y-34063855D02*
X20971428Y-34635283D01*
X20971428Y-34635283D02*
X20933333Y-34749569D01*
X20933333Y-34749569D02*
X20857142Y-34825760D01*
X20857142Y-34825760D02*
X20742857Y-34863855D01*
X20742857Y-34863855D02*
X20666666Y-34863855D01*
X21314285Y-34140045D02*
X21352381Y-34101950D01*
X21352381Y-34101950D02*
X21428571Y-34063855D01*
X21428571Y-34063855D02*
X21619047Y-34063855D01*
X21619047Y-34063855D02*
X21695238Y-34101950D01*
X21695238Y-34101950D02*
X21733333Y-34140045D01*
X21733333Y-34140045D02*
X21771428Y-34216236D01*
X21771428Y-34216236D02*
X21771428Y-34292426D01*
X21771428Y-34292426D02*
X21733333Y-34406712D01*
X21733333Y-34406712D02*
X21276190Y-34863855D01*
X21276190Y-34863855D02*
X21771428Y-34863855D01*
X22533333Y-34863855D02*
X22076190Y-34863855D01*
X22304762Y-34863855D02*
X22304762Y-34063855D01*
X22304762Y-34063855D02*
X22228571Y-34178140D01*
X22228571Y-34178140D02*
X22152381Y-34254331D01*
X22152381Y-34254331D02*
X22076190Y-34292426D01*
X23028572Y-34063855D02*
X23104762Y-34063855D01*
X23104762Y-34063855D02*
X23180953Y-34101950D01*
X23180953Y-34101950D02*
X23219048Y-34140045D01*
X23219048Y-34140045D02*
X23257143Y-34216236D01*
X23257143Y-34216236D02*
X23295238Y-34368617D01*
X23295238Y-34368617D02*
X23295238Y-34559093D01*
X23295238Y-34559093D02*
X23257143Y-34711474D01*
X23257143Y-34711474D02*
X23219048Y-34787664D01*
X23219048Y-34787664D02*
X23180953Y-34825760D01*
X23180953Y-34825760D02*
X23104762Y-34863855D01*
X23104762Y-34863855D02*
X23028572Y-34863855D01*
X23028572Y-34863855D02*
X22952381Y-34825760D01*
X22952381Y-34825760D02*
X22914286Y-34787664D01*
X22914286Y-34787664D02*
X22876191Y-34711474D01*
X22876191Y-34711474D02*
X22838095Y-34559093D01*
X22838095Y-34559093D02*
X22838095Y-34368617D01*
X22838095Y-34368617D02*
X22876191Y-34216236D01*
X22876191Y-34216236D02*
X22914286Y-34140045D01*
X22914286Y-34140045D02*
X22952381Y-34101950D01*
X22952381Y-34101950D02*
X23028572Y-34063855D01*
X6971428Y-22563855D02*
X6971428Y-23135283D01*
X6971428Y-23135283D02*
X6933333Y-23249569D01*
X6933333Y-23249569D02*
X6857142Y-23325760D01*
X6857142Y-23325760D02*
X6742857Y-23363855D01*
X6742857Y-23363855D02*
X6666666Y-23363855D01*
X7314285Y-22640045D02*
X7352381Y-22601950D01*
X7352381Y-22601950D02*
X7428571Y-22563855D01*
X7428571Y-22563855D02*
X7619047Y-22563855D01*
X7619047Y-22563855D02*
X7695238Y-22601950D01*
X7695238Y-22601950D02*
X7733333Y-22640045D01*
X7733333Y-22640045D02*
X7771428Y-22716236D01*
X7771428Y-22716236D02*
X7771428Y-22792426D01*
X7771428Y-22792426D02*
X7733333Y-22906712D01*
X7733333Y-22906712D02*
X7276190Y-23363855D01*
X7276190Y-23363855D02*
X7771428Y-23363855D01*
X8266667Y-22563855D02*
X8342857Y-22563855D01*
X8342857Y-22563855D02*
X8419048Y-22601950D01*
X8419048Y-22601950D02*
X8457143Y-22640045D01*
X8457143Y-22640045D02*
X8495238Y-22716236D01*
X8495238Y-22716236D02*
X8533333Y-22868617D01*
X8533333Y-22868617D02*
X8533333Y-23059093D01*
X8533333Y-23059093D02*
X8495238Y-23211474D01*
X8495238Y-23211474D02*
X8457143Y-23287664D01*
X8457143Y-23287664D02*
X8419048Y-23325760D01*
X8419048Y-23325760D02*
X8342857Y-23363855D01*
X8342857Y-23363855D02*
X8266667Y-23363855D01*
X8266667Y-23363855D02*
X8190476Y-23325760D01*
X8190476Y-23325760D02*
X8152381Y-23287664D01*
X8152381Y-23287664D02*
X8114286Y-23211474D01*
X8114286Y-23211474D02*
X8076190Y-23059093D01*
X8076190Y-23059093D02*
X8076190Y-22868617D01*
X8076190Y-22868617D02*
X8114286Y-22716236D01*
X8114286Y-22716236D02*
X8152381Y-22640045D01*
X8152381Y-22640045D02*
X8190476Y-22601950D01*
X8190476Y-22601950D02*
X8266667Y-22563855D01*
X8990476Y-22906712D02*
X8914286Y-22868617D01*
X8914286Y-22868617D02*
X8876191Y-22830521D01*
X8876191Y-22830521D02*
X8838095Y-22754331D01*
X8838095Y-22754331D02*
X8838095Y-22716236D01*
X8838095Y-22716236D02*
X8876191Y-22640045D01*
X8876191Y-22640045D02*
X8914286Y-22601950D01*
X8914286Y-22601950D02*
X8990476Y-22563855D01*
X8990476Y-22563855D02*
X9142857Y-22563855D01*
X9142857Y-22563855D02*
X9219048Y-22601950D01*
X9219048Y-22601950D02*
X9257143Y-22640045D01*
X9257143Y-22640045D02*
X9295238Y-22716236D01*
X9295238Y-22716236D02*
X9295238Y-22754331D01*
X9295238Y-22754331D02*
X9257143Y-22830521D01*
X9257143Y-22830521D02*
X9219048Y-22868617D01*
X9219048Y-22868617D02*
X9142857Y-22906712D01*
X9142857Y-22906712D02*
X8990476Y-22906712D01*
X8990476Y-22906712D02*
X8914286Y-22944807D01*
X8914286Y-22944807D02*
X8876191Y-22982902D01*
X8876191Y-22982902D02*
X8838095Y-23059093D01*
X8838095Y-23059093D02*
X8838095Y-23211474D01*
X8838095Y-23211474D02*
X8876191Y-23287664D01*
X8876191Y-23287664D02*
X8914286Y-23325760D01*
X8914286Y-23325760D02*
X8990476Y-23363855D01*
X8990476Y-23363855D02*
X9142857Y-23363855D01*
X9142857Y-23363855D02*
X9219048Y-23325760D01*
X9219048Y-23325760D02*
X9257143Y-23287664D01*
X9257143Y-23287664D02*
X9295238Y-23211474D01*
X9295238Y-23211474D02*
X9295238Y-23059093D01*
X9295238Y-23059093D02*
X9257143Y-22982902D01*
X9257143Y-22982902D02*
X9219048Y-22944807D01*
X9219048Y-22944807D02*
X9142857Y-22906712D01*
X28628571Y-23563855D02*
X28628571Y-24211474D01*
X28628571Y-24211474D02*
X28666666Y-24287664D01*
X28666666Y-24287664D02*
X28704761Y-24325760D01*
X28704761Y-24325760D02*
X28780952Y-24363855D01*
X28780952Y-24363855D02*
X28933333Y-24363855D01*
X28933333Y-24363855D02*
X29009523Y-24325760D01*
X29009523Y-24325760D02*
X29047618Y-24287664D01*
X29047618Y-24287664D02*
X29085714Y-24211474D01*
X29085714Y-24211474D02*
X29085714Y-23563855D01*
X29428570Y-23640045D02*
X29466666Y-23601950D01*
X29466666Y-23601950D02*
X29542856Y-23563855D01*
X29542856Y-23563855D02*
X29733332Y-23563855D01*
X29733332Y-23563855D02*
X29809523Y-23601950D01*
X29809523Y-23601950D02*
X29847618Y-23640045D01*
X29847618Y-23640045D02*
X29885713Y-23716236D01*
X29885713Y-23716236D02*
X29885713Y-23792426D01*
X29885713Y-23792426D02*
X29847618Y-23906712D01*
X29847618Y-23906712D02*
X29390475Y-24363855D01*
X29390475Y-24363855D02*
X29885713Y-24363855D01*
X30380952Y-23563855D02*
X30457142Y-23563855D01*
X30457142Y-23563855D02*
X30533333Y-23601950D01*
X30533333Y-23601950D02*
X30571428Y-23640045D01*
X30571428Y-23640045D02*
X30609523Y-23716236D01*
X30609523Y-23716236D02*
X30647618Y-23868617D01*
X30647618Y-23868617D02*
X30647618Y-24059093D01*
X30647618Y-24059093D02*
X30609523Y-24211474D01*
X30609523Y-24211474D02*
X30571428Y-24287664D01*
X30571428Y-24287664D02*
X30533333Y-24325760D01*
X30533333Y-24325760D02*
X30457142Y-24363855D01*
X30457142Y-24363855D02*
X30380952Y-24363855D01*
X30380952Y-24363855D02*
X30304761Y-24325760D01*
X30304761Y-24325760D02*
X30266666Y-24287664D01*
X30266666Y-24287664D02*
X30228571Y-24211474D01*
X30228571Y-24211474D02*
X30190475Y-24059093D01*
X30190475Y-24059093D02*
X30190475Y-23868617D01*
X30190475Y-23868617D02*
X30228571Y-23716236D01*
X30228571Y-23716236D02*
X30266666Y-23640045D01*
X30266666Y-23640045D02*
X30304761Y-23601950D01*
X30304761Y-23601950D02*
X30380952Y-23563855D01*
X30914285Y-23563855D02*
X31447619Y-23563855D01*
X31447619Y-23563855D02*
X31104761Y-24363855D01*
X14647619Y-3863855D02*
X14647619Y-3063855D01*
X14647619Y-3063855D02*
X14838095Y-3063855D01*
X14838095Y-3063855D02*
X14952381Y-3101950D01*
X14952381Y-3101950D02*
X15028571Y-3178140D01*
X15028571Y-3178140D02*
X15066666Y-3254331D01*
X15066666Y-3254331D02*
X15104762Y-3406712D01*
X15104762Y-3406712D02*
X15104762Y-3520998D01*
X15104762Y-3520998D02*
X15066666Y-3673379D01*
X15066666Y-3673379D02*
X15028571Y-3749569D01*
X15028571Y-3749569D02*
X14952381Y-3825760D01*
X14952381Y-3825760D02*
X14838095Y-3863855D01*
X14838095Y-3863855D02*
X14647619Y-3863855D01*
X15409523Y-3140045D02*
X15447619Y-3101950D01*
X15447619Y-3101950D02*
X15523809Y-3063855D01*
X15523809Y-3063855D02*
X15714285Y-3063855D01*
X15714285Y-3063855D02*
X15790476Y-3101950D01*
X15790476Y-3101950D02*
X15828571Y-3140045D01*
X15828571Y-3140045D02*
X15866666Y-3216236D01*
X15866666Y-3216236D02*
X15866666Y-3292426D01*
X15866666Y-3292426D02*
X15828571Y-3406712D01*
X15828571Y-3406712D02*
X15371428Y-3863855D01*
X15371428Y-3863855D02*
X15866666Y-3863855D01*
X16361905Y-3063855D02*
X16438095Y-3063855D01*
X16438095Y-3063855D02*
X16514286Y-3101950D01*
X16514286Y-3101950D02*
X16552381Y-3140045D01*
X16552381Y-3140045D02*
X16590476Y-3216236D01*
X16590476Y-3216236D02*
X16628571Y-3368617D01*
X16628571Y-3368617D02*
X16628571Y-3559093D01*
X16628571Y-3559093D02*
X16590476Y-3711474D01*
X16590476Y-3711474D02*
X16552381Y-3787664D01*
X16552381Y-3787664D02*
X16514286Y-3825760D01*
X16514286Y-3825760D02*
X16438095Y-3863855D01*
X16438095Y-3863855D02*
X16361905Y-3863855D01*
X16361905Y-3863855D02*
X16285714Y-3825760D01*
X16285714Y-3825760D02*
X16247619Y-3787664D01*
X16247619Y-3787664D02*
X16209524Y-3711474D01*
X16209524Y-3711474D02*
X16171428Y-3559093D01*
X16171428Y-3559093D02*
X16171428Y-3368617D01*
X16171428Y-3368617D02*
X16209524Y-3216236D01*
X16209524Y-3216236D02*
X16247619Y-3140045D01*
X16247619Y-3140045D02*
X16285714Y-3101950D01*
X16285714Y-3101950D02*
X16361905Y-3063855D01*
X16895238Y-3063855D02*
X17428572Y-3063855D01*
X17428572Y-3063855D02*
X17085714Y-3863855D01*
%TO.C,C215*%
X34840000Y-17511252D02*
X34840000Y-16088748D01*
X37560000Y-17511252D02*
X37560000Y-16088748D01*
%TO.C,R224*%
X23262742Y-24277500D02*
X23737258Y-24277500D01*
X23262742Y-25322500D02*
X23737258Y-25322500D01*
%TO.C,C216*%
X37288748Y-20140000D02*
X38711252Y-20140000D01*
X37288748Y-22860000D02*
X38711252Y-22860000D01*
%TO.C,R223*%
X36462742Y-24477500D02*
X36937258Y-24477500D01*
X36462742Y-25522500D02*
X36937258Y-25522500D01*
%TO.C,J209*%
X42970000Y-14315000D02*
X43970000Y-13315000D01*
X42970000Y-19685000D02*
X42970000Y-14315000D01*
X43970000Y-13315000D02*
X53100000Y-13315000D01*
X43970000Y-20685000D02*
X42970000Y-19685000D01*
X53100000Y-13315000D02*
X53100000Y-20685000D01*
X53100000Y-20685000D02*
X43970000Y-20685000D01*
%TO.C,D208*%
D11*
X41750000Y-6600000D02*
X41150000Y-6600000D01*
%TO.C,C214*%
D10*
X22440000Y-18411252D02*
X22440000Y-16988748D01*
X25160000Y-18411252D02*
X25160000Y-16988748D01*
%TO.C,J208*%
X6900000Y-13315000D02*
X16030000Y-13315000D01*
X6900000Y-20685000D02*
X6900000Y-13315000D01*
X16030000Y-13315000D02*
X17030000Y-14315000D01*
X16030000Y-20685000D02*
X6900000Y-20685000D01*
X17030000Y-14315000D02*
X17030000Y-19685000D01*
X17030000Y-19685000D02*
X16030000Y-20685000D01*
%TO.C,D207*%
D11*
X13750000Y-6600000D02*
X13150000Y-6600000D01*
%TD*%
M02*
