%TF.GenerationSoftware,KiCad,Pcbnew,10.0.6*%
%TF.CreationDate,2026-09-14T01:55:47+09:00*%
%TF.ProjectId,wp10_aux_protection,77703130-5f61-4757-985f-70726f746563,rev?*%
%TF.SameCoordinates,Original*%
%TF.FileFunction,Soldermask,Top*%
%TF.FilePolarity,Negative*%
%FSLAX46Y46*%
G04 Gerber Fmt 4.6, Leading zero omitted, Abs format (unit mm)*
G04 Created by KiCad (PCBNEW 10.0.6) date 2026-09-14 01:55:47*
%MOMM*%
%LPD*%
G01*
G04 APERTURE LIST*
G04 Aperture macros list*
%AMRoundRect*
0 Rectangle with rounded corners*
0 $1 Rounding radius*
0 $2 $3 $4 $5 $6 $7 $8 $9 X,Y pos of 4 corners*
0 Add a 4 corners polygon primitive as box body*
4,1,4,$2,$3,$4,$5,$6,$7,$8,$9,$2,$3,0*
0 Add four circle primitives for the rounded corners*
1,1,$1+$1,$2,$3*
1,1,$1+$1,$4,$5*
1,1,$1+$1,$6,$7*
1,1,$1+$1,$8,$9*
0 Add four rect primitives between the rounded corners*
20,1,$1+$1,$2,$3,$4,$5,0*
20,1,$1+$1,$4,$5,$6,$7,0*
20,1,$1+$1,$6,$7,$8,$9,0*
20,1,$1+$1,$8,$9,$2,$3,0*%
G04 Aperture macros list end*
%ADD10RoundRect,0.250000X1.100000X-0.325000X1.100000X0.325000X-1.100000X0.325000X-1.100000X-0.325000X0*%
%ADD11RoundRect,0.200000X-0.200000X-0.275000X0.200000X-0.275000X0.200000X0.275000X-0.200000X0.275000X0*%
%ADD12RoundRect,0.250000X-0.325000X-1.100000X0.325000X-1.100000X0.325000X1.100000X-0.325000X1.100000X0*%
%ADD13C,3.000000*%
%ADD14RoundRect,0.250001X0.499999X-0.499999X0.499999X0.499999X-0.499999X0.499999X-0.499999X-0.499999X0*%
%ADD15C,1.500000*%
%ADD16C,2.700000*%
%ADD17R,2.180000X1.620000*%
%ADD18RoundRect,0.250001X-0.499999X0.499999X-0.499999X-0.499999X0.499999X-0.499999X0.499999X0.499999X0*%
%ADD19R,3.300000X3.300000*%
%ADD20RoundRect,0.112500X-0.637500X-0.112500X0.637500X-0.112500X0.637500X0.112500X-0.637500X0.112500X0*%
%ADD21R,2.300000X2.500000*%
G04 APERTURE END LIST*
D10*
%TO.C,C215*%
X36200000Y-18275000D03*
X36200000Y-15325000D03*
%TD*%
D11*
%TO.C,R224*%
X22675000Y-24800000D03*
X24325000Y-24800000D03*
%TD*%
D12*
%TO.C,C216*%
X36525000Y-21500000D03*
X39475000Y-21500000D03*
%TD*%
D11*
%TO.C,R223*%
X35875000Y-25000000D03*
X37525000Y-25000000D03*
%TD*%
D13*
%TO.C,J209*%
X47680000Y-17000000D03*
D14*
X52000000Y-17000000D03*
D15*
X55000000Y-17000000D03*
%TD*%
D16*
%TO.C,MH34_2*%
X56500000Y-3500000D03*
%TD*%
%TO.C,MH34_1*%
X3500000Y-3500000D03*
%TD*%
D17*
%TO.C,D208*%
X44000000Y-5890000D03*
X44000000Y-10110000D03*
%TD*%
D10*
%TO.C,C214*%
X23800000Y-19175000D03*
X23800000Y-16225000D03*
%TD*%
D15*
%TO.C,J210*%
X22000000Y-31000000D03*
X24540000Y-31000000D03*
%TD*%
D13*
%TO.C,J208*%
X12320000Y-17000000D03*
D18*
X8000000Y-17000000D03*
D15*
X5000000Y-17000000D03*
%TD*%
D19*
%TO.C,U207*%
X30000000Y-20000000D03*
D20*
X27100000Y-17725000D03*
X27100000Y-18375000D03*
X27100000Y-19025000D03*
X27100000Y-19675000D03*
X27100000Y-20325000D03*
X27100000Y-20975000D03*
X27100000Y-21625000D03*
X27100000Y-22275000D03*
X32900000Y-22275000D03*
X32900000Y-21625000D03*
X32900000Y-20975000D03*
X32900000Y-20325000D03*
X32900000Y-19675000D03*
X32900000Y-19025000D03*
X32900000Y-18375000D03*
X32900000Y-17725000D03*
%TD*%
D16*
%TO.C,MH34_4*%
X56500000Y-36500000D03*
%TD*%
%TO.C,MH34_3*%
X3500000Y-36500000D03*
%TD*%
D21*
%TO.C,D207*%
X16000000Y-10150000D03*
X16000000Y-5850000D03*
%TD*%
M02*
