<?xml version="1.0" standalone="no"?>
 <!DOCTYPE svg PUBLIC "-//W3C//DTD SVG 1.1//EN" 
 "http://www.w3.org/Graphics/SVG/1.1/DTD/svg11.dtd"> 
<svg
  xmlns:svg="http://www.w3.org/2000/svg"
  xmlns="http://www.w3.org/2000/svg"
  xmlns:xlink="http://www.w3.org/1999/xlink"
  xmlns:inkscape="http://www.inkscape.org/namespaces/inkscape"
  version="1.1"
  width="32.029400mm" height="35.687000mm" viewBox="0.000000 0.000000 32.029400 35.687000">
<title>SVG Image created as CP_ChemiCon_VS_D30_P10_2mm_Candidate.svg date 2026-09-09T14:15:53 </title>
  <desc>Image generated by PCBNEW </desc>
<g style="fill:#000000; fill-opacity:1.000000;stroke:#000000; stroke-opacity:1.000000;
stroke-linecap:round; stroke-linejoin:round;"
 transform="translate(0 0) scale(1 1)">
<path style="fill:#C83434; fill-opacity:1.000000; stroke:none;fill-rule:evenodd;"
d="M 9.275000,19.598250
9.275000,16.098250
12.775000,16.098250
12.775000,19.598250
Z" /> 
</g>
<g style="fill:#C83434; fill-opacity:1.000000; stroke:none;">
<circle cx="21.025000" cy="17.848250" r="1.750000" /> 
</g>
<g style="fill:none; 
stroke:#AFAFAF; stroke-width:0.150000; stroke-opacity:1; 
stroke-linecap:round; stroke-linejoin:round;">
<text x="16.025000" y="35.348250"
textLength="17.488096" font-size="1.333333" lengthAdjust="spacingAndGlyphs"
text-anchor="middle" opacity="0" stroke-opacity="0">ELXG101VSN222MR50S</text>
<g class="stroked-text"><desc>ELXG101VSN222MR50S</desc>
<path d="M7.644048 34.779259
L7.977381 34.779259
" />
<path d="M8.120238 35.303069
L7.644048 35.303069
" />
<path d="M7.644048 35.303069
L7.644048 34.303069
" />
<path d="M7.644048 34.303069
L8.120238 34.303069
" />
<path d="M9.025000 35.303069
L8.548810 35.303069
" />
<path d="M8.548810 35.303069
L8.548810 34.303069
" />
<path d="M9.263096 34.303069
L9.929762 35.303069
" />
<path d="M9.929762 34.303069
L9.263096 35.303069
" />
<path d="M10.834524 34.350688
L10.739286 34.303069
" />
<path d="M10.739286 34.303069
L10.596429 34.303069
" />
<path d="M10.596429 34.303069
L10.453572 34.350688
" />
<path d="M10.453572 34.350688
L10.358334 34.445926
" />
<path d="M10.358334 34.445926
L10.310715 34.541164
" />
<path d="M10.310715 34.541164
L10.263096 34.731640
" />
<path d="M10.263096 34.731640
L10.263096 34.874497
" />
<path d="M10.263096 34.874497
L10.310715 35.064973
" />
<path d="M10.310715 35.064973
L10.358334 35.160211
" />
<path d="M10.358334 35.160211
L10.453572 35.255450
" />
<path d="M10.453572 35.255450
L10.596429 35.303069
" />
<path d="M10.596429 35.303069
L10.691667 35.303069
" />
<path d="M10.691667 35.303069
L10.834524 35.255450
" />
<path d="M10.834524 35.255450
L10.882143 35.207830
" />
<path d="M10.882143 35.207830
L10.882143 34.874497
" />
<path d="M10.882143 34.874497
L10.691667 34.874497
" />
<path d="M11.834524 35.303069
L11.263096 35.303069
" />
<path d="M11.548810 35.303069
L11.548810 34.303069
" />
<path d="M11.548810 34.303069
L11.453572 34.445926
" />
<path d="M11.453572 34.445926
L11.358334 34.541164
" />
<path d="M11.358334 34.541164
L11.263096 34.588783
" />
<path d="M12.453572 34.303069
L12.548810 34.303069
" />
<path d="M12.548810 34.303069
L12.644048 34.350688
" />
<path d="M12.644048 34.350688
L12.691667 34.398307
" />
<path d="M12.691667 34.398307
L12.739286 34.493545
" />
<path d="M12.739286 34.493545
L12.786905 34.684021
" />
<path d="M12.786905 34.684021
L12.786905 34.922116
" />
<path d="M12.786905 34.922116
L12.739286 35.112592
" />
<path d="M12.739286 35.112592
L12.691667 35.207830
" />
<path d="M12.691667 35.207830
L12.644048 35.255450
" />
<path d="M12.644048 35.255450
L12.548810 35.303069
" />
<path d="M12.548810 35.303069
L12.453572 35.303069
" />
<path d="M12.453572 35.303069
L12.358334 35.255450
" />
<path d="M12.358334 35.255450
L12.310715 35.207830
" />
<path d="M12.310715 35.207830
L12.263096 35.112592
" />
<path d="M12.263096 35.112592
L12.215477 34.922116
" />
<path d="M12.215477 34.922116
L12.215477 34.684021
" />
<path d="M12.215477 34.684021
L12.263096 34.493545
" />
<path d="M12.263096 34.493545
L12.310715 34.398307
" />
<path d="M12.310715 34.398307
L12.358334 34.350688
" />
<path d="M12.358334 34.350688
L12.453572 34.303069
" />
<path d="M13.739286 35.303069
L13.167858 35.303069
" />
<path d="M13.453572 35.303069
L13.453572 34.303069
" />
<path d="M13.453572 34.303069
L13.358334 34.445926
" />
<path d="M13.358334 34.445926
L13.263096 34.541164
" />
<path d="M13.263096 34.541164
L13.167858 34.588783
" />
<path d="M14.025001 34.303069
L14.358334 35.303069
" />
<path d="M14.358334 35.303069
L14.691667 34.303069
" />
<path d="M14.977382 35.255450
L15.120239 35.303069
" />
<path d="M15.120239 35.303069
L15.358334 35.303069
" />
<path d="M15.358334 35.303069
L15.453572 35.255450
" />
<path d="M15.453572 35.255450
L15.501191 35.207830
" />
<path d="M15.501191 35.207830
L15.548810 35.112592
" />
<path d="M15.548810 35.112592
L15.548810 35.017354
" />
<path d="M15.548810 35.017354
L15.501191 34.922116
" />
<path d="M15.501191 34.922116
L15.453572 34.874497
" />
<path d="M15.453572 34.874497
L15.358334 34.826878
" />
<path d="M15.358334 34.826878
L15.167858 34.779259
" />
<path d="M15.167858 34.779259
L15.072620 34.731640
" />
<path d="M15.072620 34.731640
L15.025001 34.684021
" />
<path d="M15.025001 34.684021
L14.977382 34.588783
" />
<path d="M14.977382 34.588783
L14.977382 34.493545
" />
<path d="M14.977382 34.493545
L15.025001 34.398307
" />
<path d="M15.025001 34.398307
L15.072620 34.350688
" />
<path d="M15.072620 34.350688
L15.167858 34.303069
" />
<path d="M15.167858 34.303069
L15.405953 34.303069
" />
<path d="M15.405953 34.303069
L15.548810 34.350688
" />
<path d="M15.977382 35.303069
L15.977382 34.303069
" />
<path d="M15.977382 34.303069
L16.548809 35.303069
" />
<path d="M16.548809 35.303069
L16.548809 34.303069
" />
<path d="M16.977381 34.398307
L17.025000 34.350688
" />
<path d="M17.025000 34.350688
L17.120238 34.303069
" />
<path d="M17.120238 34.303069
L17.358333 34.303069
" />
<path d="M17.358333 34.303069
L17.453571 34.350688
" />
<path d="M17.453571 34.350688
L17.501190 34.398307
" />
<path d="M17.501190 34.398307
L17.548809 34.493545
" />
<path d="M17.548809 34.493545
L17.548809 34.588783
" />
<path d="M17.548809 34.588783
L17.501190 34.731640
" />
<path d="M17.501190 34.731640
L16.929762 35.303069
" />
<path d="M16.929762 35.303069
L17.548809 35.303069
" />
<path d="M17.929762 34.398307
L17.977381 34.350688
" />
<path d="M17.977381 34.350688
L18.072619 34.303069
" />
<path d="M18.072619 34.303069
L18.310714 34.303069
" />
<path d="M18.310714 34.303069
L18.405952 34.350688
" />
<path d="M18.405952 34.350688
L18.453571 34.398307
" />
<path d="M18.453571 34.398307
L18.501190 34.493545
" />
<path d="M18.501190 34.493545
L18.501190 34.588783
" />
<path d="M18.501190 34.588783
L18.453571 34.731640
" />
<path d="M18.453571 34.731640
L17.882143 35.303069
" />
<path d="M17.882143 35.303069
L18.501190 35.303069
" />
<path d="M18.882143 34.398307
L18.929762 34.350688
" />
<path d="M18.929762 34.350688
L19.025000 34.303069
" />
<path d="M19.025000 34.303069
L19.263095 34.303069
" />
<path d="M19.263095 34.303069
L19.358333 34.350688
" />
<path d="M19.358333 34.350688
L19.405952 34.398307
" />
<path d="M19.405952 34.398307
L19.453571 34.493545
" />
<path d="M19.453571 34.493545
L19.453571 34.588783
" />
<path d="M19.453571 34.588783
L19.405952 34.731640
" />
<path d="M19.405952 34.731640
L18.834524 35.303069
" />
<path d="M18.834524 35.303069
L19.453571 35.303069
" />
<path d="M19.882143 35.303069
L19.882143 34.303069
" />
<path d="M19.882143 34.303069
L20.215476 35.017354
" />
<path d="M20.215476 35.017354
L20.548809 34.303069
" />
<path d="M20.548809 34.303069
L20.548809 35.303069
" />
<path d="M21.596428 35.303069
L21.263095 34.826878
" />
<path d="M21.025000 35.303069
L21.025000 34.303069
" />
<path d="M21.025000 34.303069
L21.405952 34.303069
" />
<path d="M21.405952 34.303069
L21.501190 34.350688
" />
<path d="M21.501190 34.350688
L21.548809 34.398307
" />
<path d="M21.548809 34.398307
L21.596428 34.493545
" />
<path d="M21.596428 34.493545
L21.596428 34.636402
" />
<path d="M21.596428 34.636402
L21.548809 34.731640
" />
<path d="M21.548809 34.731640
L21.501190 34.779259
" />
<path d="M21.501190 34.779259
L21.405952 34.826878
" />
<path d="M21.405952 34.826878
L21.025000 34.826878
" />
<path d="M22.501190 34.303069
L22.025000 34.303069
" />
<path d="M22.025000 34.303069
L21.977381 34.779259
" />
<path d="M21.977381 34.779259
L22.025000 34.731640
" />
<path d="M22.025000 34.731640
L22.120238 34.684021
" />
<path d="M22.120238 34.684021
L22.358333 34.684021
" />
<path d="M22.358333 34.684021
L22.453571 34.731640
" />
<path d="M22.453571 34.731640
L22.501190 34.779259
" />
<path d="M22.501190 34.779259
L22.548809 34.874497
" />
<path d="M22.548809 34.874497
L22.548809 35.112592
" />
<path d="M22.548809 35.112592
L22.501190 35.207830
" />
<path d="M22.501190 35.207830
L22.453571 35.255450
" />
<path d="M22.453571 35.255450
L22.358333 35.303069
" />
<path d="M22.358333 35.303069
L22.120238 35.303069
" />
<path d="M22.120238 35.303069
L22.025000 35.255450
" />
<path d="M22.025000 35.255450
L21.977381 35.207830
" />
<path d="M23.167857 34.303069
L23.263095 34.303069
" />
<path d="M23.263095 34.303069
L23.358333 34.350688
" />
<path d="M23.358333 34.350688
L23.405952 34.398307
" />
<path d="M23.405952 34.398307
L23.453571 34.493545
" />
<path d="M23.453571 34.493545
L23.501190 34.684021
" />
<path d="M23.501190 34.684021
L23.501190 34.922116
" />
<path d="M23.501190 34.922116
L23.453571 35.112592
" />
<path d="M23.453571 35.112592
L23.405952 35.207830
" />
<path d="M23.405952 35.207830
L23.358333 35.255450
" />
<path d="M23.358333 35.255450
L23.263095 35.303069
" />
<path d="M23.263095 35.303069
L23.167857 35.303069
" />
<path d="M23.167857 35.303069
L23.072619 35.255450
" />
<path d="M23.072619 35.255450
L23.025000 35.207830
" />
<path d="M23.025000 35.207830
L22.977381 35.112592
" />
<path d="M22.977381 35.112592
L22.929762 34.922116
" />
<path d="M22.929762 34.922116
L22.929762 34.684021
" />
<path d="M22.929762 34.684021
L22.977381 34.493545
" />
<path d="M22.977381 34.493545
L23.025000 34.398307
" />
<path d="M23.025000 34.398307
L23.072619 34.350688
" />
<path d="M23.072619 34.350688
L23.167857 34.303069
" />
<path d="M23.882143 35.255450
L24.025000 35.303069
" />
<path d="M24.025000 35.303069
L24.263095 35.303069
" />
<path d="M24.263095 35.303069
L24.358333 35.255450
" />
<path d="M24.358333 35.255450
L24.405952 35.207830
" />
<path d="M24.405952 35.207830
L24.453571 35.112592
" />
<path d="M24.453571 35.112592
L24.453571 35.017354
" />
<path d="M24.453571 35.017354
L24.405952 34.922116
" />
<path d="M24.405952 34.922116
L24.358333 34.874497
" />
<path d="M24.358333 34.874497
L24.263095 34.826878
" />
<path d="M24.263095 34.826878
L24.072619 34.779259
" />
<path d="M24.072619 34.779259
L23.977381 34.731640
" />
<path d="M23.977381 34.731640
L23.929762 34.684021
" />
<path d="M23.929762 34.684021
L23.882143 34.588783
" />
<path d="M23.882143 34.588783
L23.882143 34.493545
" />
<path d="M23.882143 34.493545
L23.929762 34.398307
" />
<path d="M23.929762 34.398307
L23.977381 34.350688
" />
<path d="M23.977381 34.350688
L24.072619 34.303069
" />
<path d="M24.072619 34.303069
L24.310714 34.303069
" />
<path d="M24.310714 34.303069
L24.453571 34.350688
" />
</g><text x="11.025000" y="15.598250"
textLength="2.007143" font-size="2.000000" lengthAdjust="spacingAndGlyphs"
text-anchor="middle" opacity="0" stroke-opacity="0">+</text>
<g class="stroked-text"><desc>+</desc>
<path d="M10.453572 14.962950
L11.596429 14.962950
" />
<path d="M11.025001 15.534379
L11.025001 14.391522
" />
</g><text x="21.025000" y="15.598250"
textLength="2.007143" font-size="2.000000" lengthAdjust="spacingAndGlyphs"
text-anchor="middle" opacity="0" stroke-opacity="0">-</text>
<g class="stroked-text"><desc>-</desc>
<path d="M20.453571 14.962950
L21.596429 14.962950
" />
</g></g>
<g style="fill:none; 
stroke:#AFAFAF; stroke-width:0.100000; stroke-opacity:1; 
stroke-linecap:round; stroke-linejoin:round;">
<circle cx="16.025000" cy="17.848250" r="15.000000" /> 
</g>
<g style="fill:none; 
stroke:#AFAFAF; stroke-width:0.097222; stroke-opacity:1; 
stroke-linecap:round; stroke-linejoin:round;">
<text x="11.025000" y="18.431583"
textLength="1.169443" font-size="1.555554" lengthAdjust="spacingAndGlyphs"
text-anchor="middle" opacity="0" stroke-opacity="0">1</text>
<g class="stroked-text"><desc>1</desc>
<path d="M11.358334 18.382916
L10.691668 18.382916
" />
<path d="M11.025001 18.382916
L11.025001 17.216251
" />
<path d="M11.025001 17.216251
L10.913890 17.382918
" />
<path d="M10.913890 17.382918
L10.802779 17.494029
" />
<path d="M10.802779 17.494029
L10.691668 17.549584
" />
</g><path style="fill:none; 
stroke:#AFAFAF; stroke-width:0.100000; stroke-opacity:1; 
stroke-linecap:round; stroke-linejoin:round;fill:none"
d="M 9.275000,16.098250
12.775000,16.098250
12.775000,19.598250
9.275000,19.598250
Z" /> 
</g>
<g style="fill:none; 
stroke:#AFAFAF; stroke-width:0.097222; stroke-opacity:1; 
stroke-linecap:round; stroke-linejoin:round;">
<text x="21.025000" y="18.431583"
textLength="1.169443" font-size="1.555554" lengthAdjust="spacingAndGlyphs"
text-anchor="middle" opacity="0" stroke-opacity="0">2</text>
<g class="stroked-text"><desc>2</desc>
<path d="M20.691667 17.327362
L20.747222 17.271807
" />
<path d="M20.747222 17.271807
L20.858333 17.216251
" />
<path d="M20.858333 17.216251
L21.136111 17.216251
" />
<path d="M21.136111 17.216251
L21.247222 17.271807
" />
<path d="M21.247222 17.271807
L21.302777 17.327362
" />
<path d="M21.302777 17.327362
L21.358333 17.438473
" />
<path d="M21.358333 17.438473
L21.358333 17.549584
" />
<path d="M21.358333 17.549584
L21.302777 17.716251
" />
<path d="M21.302777 17.716251
L20.636111 18.382916
" />
<path d="M20.636111 18.382916
L21.358333 18.382916
" />
</g></g>
<g style="fill:none; 
stroke:#AFAFAF; stroke-width:0.100000; stroke-opacity:1; 
stroke-linecap:round; stroke-linejoin:round;">
<circle cx="21.025000" cy="17.848250" r="1.750000" /> 
<path style="fill:none; 
stroke:#FF26E2; stroke-width:0.050000; stroke-opacity:1; 
stroke-linecap:round; stroke-linejoin:round;fill:none"
d="M 0.025000,1.848250
32.025000,1.848250
32.025000,33.848250
0.025000,33.848250
Z" /> 
</g>
<g style="fill:#FFFFFF; fill-opacity:1.000000; stroke:none;">
<circle cx="11.025000" cy="17.848250" r="1.000000" /> 
</g>
<g style="fill:#FFFFFF; fill-opacity:1.000000; stroke:none;">
<circle cx="21.025000" cy="17.848250" r="1.000000" /> 
</g> 
</svg>
