999
FreeCAD v1.1 20260725 (Git shallow)
  0
SECTION
  2
HEADER
  9
$ACADVER
  1
AC1014
  9
$ACADMAINTVER
 70
     9
  9
$DWGCODEPAGE
  3
ANSI_1252
  9
$TEXTSTYLE
  7
STANDARD
  9
$DIMSTYLE
  2
STANDARD
  9
$DIMTXSTY
  7
STANDARD
  9
$CMLSTYLE
  2
STANDARD
  9
$LUNITS
 70
2
  9
$INSUNITS
 70
4
  9
$PEXTMAX
 10
50
 20
50
 30
50
  9
$PEXTMIN
 10
0
 20
0
 30
0
  9
$HANDSEED
  5
FFFF
  0
ENDSEC
  0
SECTION
  2
CLASSES
  0
CLASS
  1
ACDBDICTIONARYWDFLT
  2
AcDbDictionaryWithDefault
  3
ObjectDBX Classes
 90
        0
280
     0
281
     0
  0
CLASS
  1
XRECORD
  2
AcDbXrecord
  3
ObjectDBX Classes
 90
        0
280
     0
281
     0
  0
CLASS
  1
LWPOLYLINE
  2
AcDbPolyline
  3
ObjectDBX Classes
 90
        0
280
     0
281
     1
  0
ENDSEC
  0
SECTION
  2
TABLES
  0
TABLE
  2
VPORT
  5
20
330
0
100
AcDbSymbolTable
 70
     1
  0
VPORT
  5
21
330
20
100
AcDbSymbolTableRecord
100
AcDbViewportTableRecord
  2
*ACTIVE
 70
     0
  0
ENDTAB
  0
TABLE
  2
LTYPE
  5
22
330
0
100
AcDbSymbolTable
 70
     1
  0
LTYPE
  5
23
330
21
100
AcDbSymbolTableRecord
100
AcDbLinetypeTableRecord
  2
BYBLOCK
 70
     0
  3

 72
    65
 73
     0
 40
0.0
  0
LTYPE
  5
24
330
21
100
AcDbSymbolTableRecord
100
AcDbLinetypeTableRecord
  2
BYLAYER
 70
     0
  3

 72
    65
 73
     0
 40
0.0
  0
LTYPE
  5
25
330
21
100
AcDbSymbolTableRecord
100
AcDbLinetypeTableRecord
  2
CONTINUOUS
 70
     0
  3
Solid line
 72
    65
 73
     0
 40
0.0
  0
ENDTAB
  0
TABLE
  2
LAYER
  5
AB8
330
0
100
AcDbSymbolTable
 70
6
  0
LAYER
  5
AB9
330
AB8
100
AcDbSymbolTableRecord
100
AcDbLayerTableRecord
  2
0
 70
   0
 62
   7
  6
CONTINUOUS
  0
LAYER
  5
ABA
330
AB8
100
AcDbSymbolTableRecord
100
AcDbLayerTableRecord
  2
VIEW_FRONT
 70
    0
 62
    7
  6
CONTINUOUS
  0
LAYER
  5
ABB
330
AB8
100
AcDbSymbolTableRecord
100
AcDbLayerTableRecord
  2
VIEW_TOP
 70
    0
 62
    7
  6
CONTINUOUS
  0
LAYER
  5
ABC
330
AB8
100
AcDbSymbolTableRecord
100
AcDbLayerTableRecord
  2
VIEW_RIGHT
 70
    0
 62
    7
  6
CONTINUOUS
  0
LAYER
  5
ABD
330
AB8
100
AcDbSymbolTableRecord
100
AcDbLayerTableRecord
  2
VIEW_ISO
 70
    0
 62
    7
  6
CONTINUOUS
  0
LAYER
  5
ABE
330
AB8
100
AcDbSymbolTableRecord
100
AcDbLayerTableRecord
  2
VIEW_SECTION_AA
 70
    0
 62
    7
  6
CONTINUOUS
  0
ENDTAB
  0
TABLE
  2
STYLE
  5
70
330
0
100
AcDbSymbolTable
 70
     2
  0
STYLE
  5
71
330
70
100
AcDbSymbolTableRecord
100
AcDbTextStyleTableRecord
  2
STANDARD
 70
     0
 40
0.0
 41
1.0
 50
0.0
 71
     0
 42
2.5
  3
arial.ttf
  4

  0
STYLE
  5
72
330
70
100
AcDbSymbolTableRecord
100
AcDbTextStyleTableRecord
  2
ANNOTATIVE
 70
     0
 40
0.0
 41
1.0
 50
0.0
 71
     0
 42
2.5
  3
arial.ttf
  4

  0
ENDTAB
  0
TABLE
  2
VIEW
  5
73
330
0
100
AcDbSymbolTable
 70
     0
  0
ENDTAB
  0
TABLE
  2
UCS
  5
74
330
0
100
AcDbSymbolTable
 70
     0
  0
ENDTAB
  0
TABLE
  2
APPID
  5
75
330
0
100
AcDbSymbolTable
 70
     2
  0
APPID
  5
76
330
75
100
AcDbSymbolTableRecord
100
AcDbRegAppTableRecord
  2
ACAD
 70
     0
  0
APPID
  5
77
330
75
100
AcDbSymbolTableRecord
100
AcDbRegAppTableRecord
  2
ACADANNOTATIVE
 70
     0
  0
ENDTAB
  0
TABLE
  2
DIMSTYLE
  5
78
330
0
100
AcDbSymbolTable
 70
     2
  0
DIMSTYLE
105
79
330
78
100
AcDbSymbolTableRecord
100
AcDbDimStyleTableRecord
  2
STANDARD
 70
     0
  3

  4

  5

  6

  7

 40
0.0
 41
2.5
 42
0.625
 43
3.75
 44
1.25
 45
0.0
 46
0.0
 47
0.0
 48
0.0
140
2.5
141
2.5
142
0.0
143
0.03937007874016
144
1.0
145
0.0
146
1.0
147
0.625
 71
     0
 72
     0
 73
     0
 74
     0
 75
     0
 76
     0
 77
     1
 78
     8
170
     0
171
     3
172
     1
173
     0
174
     0
175
     0
176
     0
177
     0
178
     0
270
     2
271
     2
272
     2
273
     2
274
     3
340
71
275
     0
280
     0
281
     0
282
     0
283
     0
284
     8
285
     0
286
     0
287
     3
288
     0
  0
ENDTAB
  0
TABLE
  2
BLOCK_RECORD
  5
A01
330
0
100
AcDbSymbolTable
  70
5
  0
BLOCK_RECORD
  5
A02
330
A01
100
AcDbSymbolTableRecord
100
AcDbBlockTableRecord
  2
*MODEL_SPACE
  0
BLOCK_RECORD
  5
A03
330
A01
100
AcDbSymbolTableRecord
100
AcDbBlockTableRecord
  2
*PAPER_SPACE
  0
ENDTAB
  0
ENDSEC
  0
SECTION
  2
BLOCKS
  0
BLOCK
  5
A04
330
A02
100
AcDbEntity
  8
0
100
AcDbBlockBegin
  2
*MODEL_SPACE
 70
   0
 10
0
 20
0
 30
0
  3
*MODEL_SPACE
  1
 
  0
ENDBLK
  5
A05
330
A02
100
AcDbEntity
  8
0
100
AcDbBlockEnd
  0
BLOCK
  5
A06
330
A03
100
AcDbEntity
 67
1
  8
0
100
AcDbBlockBegin
  2
*PAPER_SPACE
 70
   0
 10
0
 20
0
 30
0
  3
*PAPER_SPACE
  1
 
  0
ENDBLK
  5
A07
330
A03
100
AcDbEntity
 67
    1
  8
0
100
AcDbBlockEnd
  0
ENDSEC
  0
SECTION
  2
ENTITIES
  0
LINE
  5
A08
330
A02
100
AcDbEntity
  8
VIEW_FRONT
100
AcDbLine
 10
84.500000000
 20
101.800000000
 30
0.000000000
 11
84.500000000
 21
92.200000000
 31
0.000000000
  0
LINE
  5
A09
330
A02
100
AcDbEntity
  8
VIEW_FRONT
100
AcDbLine
 10
212.500000000
 20
101.800000000
 30
0.000000000
 11
212.500000000
 21
92.200000000
 31
0.000000000
  0
LINE
  5
A0A
330
A02
100
AcDbEntity
  8
VIEW_FRONT
100
AcDbLine
 10
84.500000000
 20
101.800000000
 30
0.000000000
 11
212.500000000
 21
101.800000000
 31
0.000000000
  0
LINE
  5
A0B
330
A02
100
AcDbEntity
  8
VIEW_FRONT
100
AcDbLine
 10
84.500000000
 20
92.200000000
 30
0.000000000
 11
212.500000000
 21
92.200000000
 31
0.000000000
  0
LINE
  5
A0C
330
A02
100
AcDbEntity
  8
VIEW_FRONT
100
AcDbLine
 10
212.500000000
 20
101.800000000
 30
0.000000000
 11
187.700000000
 21
117.800000000
 31
0.000000000
  0
LINE
  5
A0D
330
A02
100
AcDbEntity
  8
VIEW_FRONT
100
AcDbLine
 10
145.300000000
 20
117.800000000
 30
0.000000000
 11
145.300000000
 21
113.800000000
 31
0.000000000
  0
LINE
  5
A0E
330
A02
100
AcDbEntity
  8
VIEW_FRONT
100
AcDbLine
 10
188.371794542
 20
113.800000000
 30
0.000000000
 11
188.371794542
 21
101.800000000
 31
0.000000000
  0
SPLINE
  5
A0F
330
A02
100
AcDbEntity
  8
VIEW_FRONT
100
AcDbSpline
210
0
220
0
230
1
 70
8
 71
1
 72
17
 73
15
 74
0
 40
3.141592654
 40
3.141592654
 40
3.360271730
 40
3.578950807
 40
3.797629884
 40
4.016308960
 40
4.234988037
 40
4.453667114
 40
4.672346190
 40
4.891025267
 40
5.109704344
 40
5.328383420
 40
5.547062497
 40
5.765741574
 40
5.984420650
 40
6.203099727
 40
6.203099727
 10
108.500000000
 20
113.800000000
 30
0.000000000
 10
109.452605502
 20
113.800000000
 30
0.000000000
 10
112.265049145
 20
113.800000000
 30
0.000000000
 10
116.803373466
 20
113.800000000
 30
0.000000000
 10
122.851416828
 20
113.800000000
 30
0.000000000
 10
130.121109263
 20
113.800000000
 30
0.000000000
 10
138.266193319
 20
113.800000000
 30
0.000000000
 10
146.898716402
 20
113.800000000
 30
0.000000000
 10
155.607509064
 20
113.800000000
 30
0.000000000
 10
163.977769114
 20
113.800000000
 30
0.000000000
 10
171.610818763
 20
113.800000000
 30
0.000000000
 10
178.143093757
 20
113.800000000
 30
0.000000000
 10
183.263460041
 20
113.800000000
 30
0.000000000
 10
186.728033159
 20
113.800000000
 30
0.000000000
 10
188.371794542
 20
113.800000000
 30
0.000000000
  0
LINE
  5
A10
330
A02
100
AcDbEntity
  8
VIEW_FRONT
100
AcDbLine
 10
187.700000000
 20
117.800000000
 30
0.000000000
 11
187.700000000
 21
113.800000000
 31
0.000000000
  0
LINE
  5
A11
330
A02
100
AcDbEntity
  8
VIEW_FRONT
100
AcDbLine
 10
151.700000000
 20
117.800000000
 30
0.000000000
 11
151.700000000
 21
113.800000000
 31
0.000000000
  0
LINE
  5
A12
330
A02
100
AcDbEntity
  8
VIEW_FRONT
100
AcDbLine
 10
145.300000000
 20
117.800000000
 30
0.000000000
 11
151.700000000
 21
117.800000000
 31
0.000000000
  0
LINE
  5
A13
330
A02
100
AcDbEntity
  8
VIEW_FRONT
100
AcDbLine
 10
108.500000000
 20
113.800000000
 30
0.000000000
 11
108.500000000
 21
101.800000000
 31
0.000000000
  0
LINE
  5
A14
330
A02
100
AcDbEntity
  8
VIEW_TOP
100
AcDbLine
 10
84.500000000
 20
169.000000000
 30
0.000000000
 11
212.500000000
 21
169.000000000
 31
0.000000000
  0
LINE
  5
A15
330
A02
100
AcDbEntity
  8
VIEW_TOP
100
AcDbLine
 10
84.500000000
 20
41.000000000
 30
0.000000000
 11
84.500000000
 21
169.000000000
 31
0.000000000
  0
LINE
  5
A16
330
A02
100
AcDbEntity
  8
VIEW_TOP
100
AcDbLine
 10
212.500000000
 20
169.000000000
 30
0.000000000
 11
212.500000000
 21
41.000000000
 31
0.000000000
  0
LINE
  5
A17
330
A02
100
AcDbEntity
  8
VIEW_TOP
100
AcDbLine
 10
132.500000000
 20
41.000000000
 30
0.000000000
 11
84.500000000
 21
41.000000000
 31
0.000000000
  0
LINE
  5
A18
330
A02
100
AcDbEntity
  8
VIEW_TOP
100
AcDbLine
 10
132.500000000
 20
41.000000000
 30
0.000000000
 11
132.500000000
 21
50.600000000
 31
0.000000000
  0
LINE
  5
A19
330
A02
100
AcDbEntity
  8
VIEW_TOP
100
AcDbLine
 10
132.500000000
 20
50.600000000
 30
0.000000000
 11
145.816718427
 21
50.600000000
 31
0.000000000
  0
ARC
  5
A1A
330
A02
100
AcDbEntity
  8
VIEW_TOP
100
AcDbCircle
 10
148.500000000
 20
53.000000000
 30
0.000000000
 40
3.600000000
100
AcDbArc
 50
0.000000000
 51
-138.189685104
  0
ARC
  5
A1B
330
A02
100
AcDbEntity
  8
VIEW_TOP
100
AcDbCircle
 10
148.500000000
 20
53.000000000
 30
0.000000000
 40
3.600000000
100
AcDbArc
 50
-41.810314896
 51
0.000000000
  0
LINE
  5
A1C
330
A02
100
AcDbEntity
  8
VIEW_TOP
100
AcDbLine
 10
151.183281573
 20
50.600000000
 30
0.000000000
 11
164.500000000
 21
50.600000000
 31
0.000000000
  0
LINE
  5
A1D
330
A02
100
AcDbEntity
  8
VIEW_TOP
100
AcDbLine
 10
164.500000000
 20
50.600000000
 30
0.000000000
 11
164.500000000
 21
41.000000000
 31
0.000000000
  0
LINE
  5
A1E
330
A02
100
AcDbEntity
  8
VIEW_TOP
100
AcDbLine
 10
212.500000000
 20
41.000000000
 30
0.000000000
 11
164.500000000
 21
41.000000000
 31
0.000000000
  0
CIRCLE
  5
A1F
330
A02
100
AcDbEntity
  8
VIEW_TOP
100
AcDbCircle
 10
92.500000000
 20
161.000000000
 30
0.000000000
 40
2.640000000
  0
CIRCLE
  5
A20
330
A02
100
AcDbEntity
  8
VIEW_TOP
100
AcDbCircle
 10
148.500000000
 20
157.000000000
 30
0.000000000
 40
3.600000000
  0
CIRCLE
  5
A21
330
A02
100
AcDbEntity
  8
VIEW_TOP
100
AcDbCircle
 10
204.500000000
 20
161.000000000
 30
0.000000000
 40
2.640000000
  0
CIRCLE
  5
A22
330
A02
100
AcDbEntity
  8
VIEW_TOP
100
AcDbCircle
 10
96.500000000
 20
105.000000000
 30
0.000000000
 40
3.600000000
  0
CIRCLE
  5
A23
330
A02
100
AcDbEntity
  8
VIEW_TOP
100
AcDbCircle
 10
92.500000000
 20
49.000000000
 30
0.000000000
 40
2.640000000
  0
CIRCLE
  5
A24
330
A02
100
AcDbEntity
  8
VIEW_TOP
100
AcDbCircle
 10
148.500000000
 20
105.000000000
 30
0.000000000
 40
16.000000000
  0
CIRCLE
  5
A25
330
A02
100
AcDbEntity
  8
VIEW_TOP
100
AcDbCircle
 10
200.500000000
 20
105.000000000
 30
0.000000000
 40
3.600000000
  0
CIRCLE
  5
A26
330
A02
100
AcDbEntity
  8
VIEW_TOP
100
AcDbCircle
 10
204.500000000
 20
49.000000000
 30
0.000000000
 40
2.640000000
  0
LINE
  5
A27
330
A02
100
AcDbEntity
  8
VIEW_TOP
100
AcDbLine
 10
145.300000000
 20
50.600000000
 30
0.000000000
 11
145.300000000
 21
41.000000000
 31
0.000000000
  0
LINE
  5
A28
330
A02
100
AcDbEntity
  8
VIEW_TOP
100
AcDbLine
 10
145.300000000
 20
54.649242250
 30
0.000000000
 11
145.300000000
 21
51.350757750
 31
0.000000000
  0
LINE
  5
A29
330
A02
100
AcDbEntity
  8
VIEW_TOP
100
AcDbLine
 10
198.850757750
 20
108.200000000
 30
0.000000000
 11
202.149242250
 21
108.200000000
 31
0.000000000
  0
LINE
  5
A2A
330
A02
100
AcDbEntity
  8
VIEW_TOP
100
AcDbLine
 10
198.850757750
 20
101.800000000
 30
0.000000000
 11
202.149242250
 21
101.800000000
 31
0.000000000
  0
LINE
  5
A2B
330
A02
100
AcDbEntity
  8
VIEW_TOP
100
AcDbLine
 10
151.700000000
 20
50.600000000
 30
0.000000000
 11
151.700000000
 21
41.000000000
 31
0.000000000
  0
LINE
  5
A2C
330
A02
100
AcDbEntity
  8
VIEW_TOP
100
AcDbLine
 10
151.700000000
 20
54.649242250
 30
0.000000000
 11
151.700000000
 21
51.350757750
 31
0.000000000
  0
LINE
  5
A2D
330
A02
100
AcDbEntity
  8
VIEW_TOP
100
AcDbLine
 10
151.700000000
 20
41.000000000
 30
0.000000000
 11
145.300000000
 21
41.000000000
 31
0.000000000
  0
LINE
  5
A2E
330
A02
100
AcDbEntity
  8
VIEW_RIGHT
100
AcDbLine
 10
145.300000000
 20
169.000000000
 30
0.000000000
 11
135.700000000
 21
169.000000000
 31
0.000000000
  0
LINE
  5
A2F
330
A02
100
AcDbEntity
  8
VIEW_RIGHT
100
AcDbLine
 10
145.300000000
 20
41.000000000
 30
0.000000000
 11
135.700000000
 21
41.000000000
 31
0.000000000
  0
LINE
  5
A30
330
A02
100
AcDbEntity
  8
VIEW_RIGHT
100
AcDbLine
 10
145.300000000
 20
169.000000000
 30
0.000000000
 11
145.300000000
 21
108.200000000
 31
0.000000000
  0
LINE
  5
A31
330
A02
100
AcDbEntity
  8
VIEW_RIGHT
100
AcDbLine
 10
145.300000000
 20
108.200000000
 30
0.000000000
 11
145.300000000
 21
101.800000000
 31
0.000000000
  0
LINE
  5
A32
330
A02
100
AcDbEntity
  8
VIEW_RIGHT
100
AcDbLine
 10
145.300000000
 20
101.800000000
 30
0.000000000
 11
145.300000000
 21
41.000000000
 31
0.000000000
  0
LINE
  5
A33
330
A02
100
AcDbEntity
  8
VIEW_RIGHT
100
AcDbLine
 10
135.700000000
 20
169.000000000
 30
0.000000000
 11
135.700000000
 21
41.000000000
 31
0.000000000
  0
LINE
  5
A34
330
A02
100
AcDbEntity
  8
VIEW_RIGHT
100
AcDbLine
 10
161.300000000
 20
101.800000000
 30
0.000000000
 11
161.300000000
 21
108.200000000
 31
0.000000000
  0
LINE
  5
A35
330
A02
100
AcDbEntity
  8
VIEW_RIGHT
100
AcDbLine
 10
145.300000000
 20
101.800000000
 30
0.000000000
 11
161.300000000
 21
101.800000000
 31
0.000000000
  0
LINE
  5
A36
330
A02
100
AcDbEntity
  8
VIEW_RIGHT
100
AcDbLine
 10
145.300000000
 20
108.200000000
 30
0.000000000
 11
161.300000000
 21
108.200000000
 31
0.000000000
  0
SPLINE
  5
A37
330
A02
100
AcDbEntity
  8
VIEW_RIGHT
100
AcDbSpline
210
0
220
0
230
1
 70
8
 71
1
 72
17
 73
15
 74
0
 40
4.712388980
 40
4.712388980
 40
4.818868319
 40
4.925347658
 40
5.031826998
 40
5.138306337
 40
5.244785676
 40
5.351265015
 40
5.457744354
 40
5.564223693
 40
5.670703032
 40
5.777182371
 40
5.883661710
 40
5.990141049
 40
6.096620388
 40
6.203099727
 40
6.203099727
 10
157.300000000
 20
145.000000000
 30
0.000000000
 10
157.300000000
 20
144.773457171
 30
0.000000000
 10
157.300000000
 20
144.096394766
 30
0.000000000
 10
157.300000000
 20
142.976481967
 30
0.000000000
 10
157.300000000
 20
141.426404185
 30
0.000000000
 10
157.300000000
 20
139.463719370
 30
0.000000000
 10
157.300000000
 20
137.110659131
 30
0.000000000
 10
157.300000000
 20
134.393876913
 30
0.000000000
 10
157.300000000
 20
131.344146094
 30
0.000000000
 10
157.300000000
 20
127.996011405
 30
0.000000000
 10
157.300000000
 20
124.387397642
 30
0.000000000
 10
157.300000000
 20
120.559180084
 30
0.000000000
 10
157.300000000
 20
116.554721492
 30
0.000000000
 10
157.300000000
 20
112.419380934
 30
0.000000000
 10
157.300000000
 20
108.200000000
 30
0.000000000
  0
LINE
  5
A38
330
A02
100
AcDbEntity
  8
VIEW_RIGHT
100
AcDbLine
 10
157.300000000
 20
65.128205458
 30
0.000000000
 11
145.300000000
 21
65.128205458
 31
0.000000000
  0
SPLINE
  5
A39
330
A02
100
AcDbEntity
  8
VIEW_RIGHT
100
AcDbSpline
210
0
220
0
230
1
 70
8
 71
1
 72
17
 73
15
 74
0
 40
0.080085580
 40
0.080085580
 40
0.180844521
 40
0.281603461
 40
0.382362401
 40
0.483121342
 40
0.583880282
 40
0.684639223
 40
0.785398163
 40
0.886157104
 40
0.986916044
 40
1.087674985
 40
1.188433925
 40
1.289192866
 40
1.389951806
 40
1.490710747
 40
1.490710747
 10
157.300000000
 20
101.800000000
 30
0.000000000
 10
157.300000000
 20
97.805584573
 30
0.000000000
 10
157.300000000
 20
93.884147698
 30
0.000000000
 10
157.300000000
 20
90.075467559
 30
0.000000000
 10
157.300000000
 20
86.418178560
 30
0.000000000
 10
157.300000000
 20
82.949379428
 30
0.000000000
 10
157.300000000
 20
79.704256892
 30
0.000000000
 10
157.300000000
 20
76.715728753
 30
0.000000000
 10
157.300000000
 20
74.014109976
 30
0.000000000
 10
157.300000000
 20
71.626805181
 30
0.000000000
 10
157.300000000
 20
69.578030660
 30
0.000000000
 10
157.300000000
 20
67.888568723
 30
0.000000000
 10
157.300000000
 20
66.575556899
 30
0.000000000
 10
157.300000000
 20
65.652314087
 30
0.000000000
 10
157.300000000
 20
65.128205458
 30
0.000000000
  0
LINE
  5
A3A
330
A02
100
AcDbEntity
  8
VIEW_RIGHT
100
AcDbLine
 10
161.300000000
 20
65.800000000
 30
0.000000000
 11
157.300000000
 21
65.800000000
 31
0.000000000
  0
LINE
  5
A3B
330
A02
100
AcDbEntity
  8
VIEW_RIGHT
100
AcDbLine
 10
145.300000000
 20
41.000000000
 30
0.000000000
 11
161.300000000
 21
65.800000000
 31
0.000000000
  0
LINE
  5
A3C
330
A02
100
AcDbEntity
  8
VIEW_RIGHT
100
AcDbLine
 10
157.300000000
 20
145.000000000
 30
0.000000000
 11
145.300000000
 21
145.000000000
 31
0.000000000
  0
LINE
  5
A3D
330
A02
100
AcDbEntity
  8
VIEW_ISO
100
AcDbLine
 10
88.242552328
 20
73.604458915
 30
0.000000000
 11
91.181940019
 21
68.513290091
 31
0.000000000
  0
LINE
  5
A3E
330
A02
100
AcDbEntity
  8
VIEW_ISO
100
AcDbLine
 10
166.626224097
 20
73.604458915
 30
0.000000000
 11
169.565611788
 21
68.513290091
 31
0.000000000
  0
LINE
  5
A3F
330
A02
100
AcDbEntity
  8
VIEW_ISO
100
AcDbLine
 10
88.242552328
 20
73.604458915
 30
0.000000000
 11
166.626224097
 21
73.604458915
 31
0.000000000
  0
LINE
  5
A40
330
A02
100
AcDbEntity
  8
VIEW_ISO
100
AcDbLine
 10
91.181940019
 20
68.513290091
 30
0.000000000
 11
169.565611788
 21
68.513290091
 31
0.000000000
  0
LINE
  5
A41
330
A02
100
AcDbEntity
  8
VIEW_ISO
100
AcDbLine
 10
127.434388212
 20
141.486709909
 30
0.000000000
 11
88.242552328
 21
73.604458915
 31
0.000000000
  0
LINE
  5
A42
330
A02
100
AcDbEntity
  8
VIEW_ISO
100
AcDbLine
 10
205.818059981
 20
141.486709909
 30
0.000000000
 11
208.757447672
 21
136.395541085
 31
0.000000000
  0
LINE
  5
A43
330
A02
100
AcDbEntity
  8
VIEW_ISO
100
AcDbLine
 10
166.626224097
 20
73.604458915
 30
0.000000000
 11
185.242346142
 21
105.848528137
 31
0.000000000
  0
LINE
  5
A44
330
A02
100
AcDbEntity
  8
VIEW_ISO
100
AcDbLine
 10
185.242346142
 20
105.848528137
 30
0.000000000
 11
187.201937936
 21
109.242640687
 31
0.000000000
  0
LINE
  5
A45
330
A02
100
AcDbEntity
  8
VIEW_ISO
100
AcDbLine
 10
187.201937936
 20
109.242640687
 30
0.000000000
 11
205.818059981
 21
141.486709909
 31
0.000000000
  0
LINE
  5
A46
330
A02
100
AcDbEntity
  8
VIEW_ISO
100
AcDbLine
 10
169.565611788
 20
68.513290091
 30
0.000000000
 11
208.757447672
 21
136.395541085
 31
0.000000000
  0
LINE
  5
A47
330
A02
100
AcDbEntity
  8
VIEW_ISO
100
AcDbLine
 10
156.828265125
 20
141.486709909
 30
0.000000000
 11
154.672714152
 21
137.753186105
 31
0.000000000
  0
ELLIPSE
  5
A48
330
A02
100
AcDbEntity
  8
VIEW_ISO
100
AcDbEllipse
 10
147.030306154
 20
107.545584412
 30
0.000000000
 11
25.980762114
 21
15.000000000
 31
0.000000000
 40
0.577350269
 41
3.141592654
 42
5.417701564
  0
LINE
  5
A49
330
A02
100
AcDbEntity
  8
VIEW_ISO
100
AcDbLine
 10
170.466898196
 20
105.848528137
 30
0.000000000
 11
176.883926420
 21
105.848528137
 31
0.000000000
  0
ELLIPSE
  5
A4A
330
A02
100
AcDbEntity
  8
VIEW_ISO
100
AcDbEllipse
 10
178.873672811
 20
107.545584412
 30
0.000000000
 11
2.338268590
 21
1.350000000
 31
0.000000000
 40
0.577350269
 41
3.451108567
 42
4.402873067
  0
LINE
  5
A4B
330
A02
100
AcDbEntity
  8
VIEW_ISO
100
AcDbLine
 10
178.903827407
 20
105.848528137
 30
0.000000000
 11
185.242346142
 21
105.848528137
 31
0.000000000
  0
LINE
  5
A4C
330
A02
100
AcDbEntity
  8
VIEW_ISO
100
AcDbLine
 10
156.828265125
 20
141.486709909
 30
0.000000000
 11
127.434388212
 21
141.486709909
 31
0.000000000
  0
ELLIPSE
  5
A4D
330
A02
100
AcDbEntity
  8
VIEW_ISO
100
AcDbEllipse
 10
95.591021556
 20
77.847099602
 30
0.000000000
 11
1.714730299
 21
0.990000000
 31
0.000000000
 40
0.577350269
 41
5.497787144
 42
0.000000000
  0
ELLIPSE
  5
A4E
330
A02
100
AcDbEntity
  8
VIEW_ISO
100
AcDbEllipse
 10
95.591021556
 20
77.847099602
 30
0.000000000
 11
1.714730299
 21
0.990000000
 31
0.000000000
 40
0.577350269
 41
0.000000000
 42
3.141592654
  0
ELLIPSE
  5
A4F
330
A02
100
AcDbEntity
  8
VIEW_ISO
100
AcDbEllipse
 10
95.591021556
 20
77.847099602
 30
0.000000000
 11
1.714730299
 21
0.990000000
 31
0.000000000
 40
0.577350269
 41
3.141592654
 42
5.497787144
  0
ELLIPSE
  5
A50
330
A02
100
AcDbEntity
  8
VIEW_ISO
100
AcDbEllipse
 10
131.108622826
 20
79.968419946
 30
0.000000000
 11
2.338268590
 21
1.350000000
 31
0.000000000
 40
0.577350269
 41
5.497787144
 42
0.000000000
  0
ELLIPSE
  5
A51
330
A02
100
AcDbEntity
  8
VIEW_ISO
100
AcDbEllipse
 10
131.108622826
 20
79.968419946
 30
0.000000000
 11
2.338268590
 21
1.350000000
 31
0.000000000
 40
0.577350269
 41
0.000000000
 42
3.141592654
  0
ELLIPSE
  5
A52
330
A02
100
AcDbEntity
  8
VIEW_ISO
100
AcDbEllipse
 10
131.108622826
 20
79.968419946
 30
0.000000000
 11
2.338268590
 21
1.350000000
 31
0.000000000
 40
0.577350269
 41
3.141592654
 42
5.497787144
  0
ELLIPSE
  5
A53
330
A02
100
AcDbEntity
  8
VIEW_ISO
100
AcDbEllipse
 10
164.176734354
 20
77.847099602
 30
0.000000000
 11
1.714730299
 21
0.990000000
 31
0.000000000
 40
0.577350269
 41
5.497787144
 42
0.000000000
  0
ELLIPSE
  5
A54
330
A02
100
AcDbEntity
  8
VIEW_ISO
100
AcDbEllipse
 10
164.176734354
 20
77.847099602
 30
0.000000000
 11
1.714730299
 21
0.990000000
 31
0.000000000
 40
0.577350269
 41
0.000000000
 42
3.141592654
  0
ELLIPSE
  5
A55
330
A02
100
AcDbEntity
  8
VIEW_ISO
100
AcDbEllipse
 10
164.176734354
 20
77.847099602
 30
0.000000000
 11
1.714730299
 21
0.990000000
 31
0.000000000
 40
0.577350269
 41
3.141592654
 42
5.497787144
  0
ELLIPSE
  5
A56
330
A02
100
AcDbEntity
  8
VIEW_ISO
100
AcDbEllipse
 10
115.186939498
 20
107.545584412
 30
0.000000000
 11
2.338268590
 21
1.350000000
 31
0.000000000
 40
0.577350269
 41
0.527642902
 42
3.141592654
  0
ELLIPSE
  5
A57
330
A02
100
AcDbEntity
  8
VIEW_ISO
100
AcDbEllipse
 10
115.186939498
 20
107.545584412
 30
0.000000000
 11
2.338268590
 21
1.350000000
 31
0.000000000
 40
0.577350269
 41
3.141592654
 42
4.767659668
  0
ELLIPSE
  5
A58
330
A02
100
AcDbEntity
  8
VIEW_ISO
100
AcDbEllipse
 10
129.883877955
 20
137.244069222
 30
0.000000000
 11
1.714730299
 21
0.990000000
 31
0.000000000
 40
0.577350269
 41
5.497787144
 42
0.000000000
  0
ELLIPSE
  5
A59
330
A02
100
AcDbEntity
  8
VIEW_ISO
100
AcDbEllipse
 10
129.883877955
 20
137.244069222
 30
0.000000000
 11
1.714730299
 21
0.990000000
 31
0.000000000
 40
0.577350269
 41
0.000000000
 42
3.141592654
  0
ELLIPSE
  5
A5A
330
A02
100
AcDbEntity
  8
VIEW_ISO
100
AcDbEllipse
 10
129.883877955
 20
137.244069222
 30
0.000000000
 11
1.714730299
 21
0.990000000
 31
0.000000000
 40
0.577350269
 41
3.141592654
 42
5.497787144
  0
ELLIPSE
  5
A5B
330
A02
100
AcDbEntity
  8
VIEW_ISO
100
AcDbEllipse
 10
149.969693846
 20
102.454415588
 30
0.000000000
 11
10.392304845
 21
6.000000000
 31
0.000000000
 40
0.577350269
 41
1.268294483
 42
1.873298171
  0
LINE
  5
A5C
330
A02
100
AcDbEntity
  8
VIEW_ISO
100
AcDbLine
 10
158.218943173
 20
139.077984874
 30
0.000000000
 11
156.828265125
 21
141.486709909
 31
0.000000000
  0
LINE
  5
A5D
330
A02
100
AcDbEntity
  8
VIEW_ISO
100
AcDbLine
 10
205.818059981
 20
141.486709909
 30
0.000000000
 11
176.424183068
 21
141.486709909
 31
0.000000000
  0
LINE
  5
A5E
330
A02
100
AcDbEntity
  8
VIEW_ISO
100
AcDbLine
 10
167.116122045
 20
117.727922061
 30
0.000000000
 11
165.156530251
 21
114.333809512
 31
0.000000000
  0
LINE
  5
A5F
330
A02
100
AcDbEntity
  8
VIEW_ISO
100
AcDbLine
 10
187.201937936
 20
109.242640687
 30
0.000000000
 11
167.116122045
 21
117.727922061
 31
0.000000000
  0
LINE
  5
A60
330
A02
100
AcDbEntity
  8
VIEW_ISO
100
AcDbLine
 10
185.242346142
 20
105.848528137
 30
0.000000000
 11
165.156530251
 21
114.333809512
 31
0.000000000
  0
ELLIPSE
  5
A61
330
A02
100
AcDbEntity
  8
VIEW_ISO
100
AcDbEllipse
 10
147.030306154
 20
107.545584412
 30
0.000000000
 11
25.980762114
 21
15.000000000
 31
0.000000000
 40
0.577350269
 41
5.843040875
 42
0.000000000
  0
LINE
  5
A62
330
A02
100
AcDbEntity
  8
VIEW_ISO
100
AcDbLine
 10
163.992857116
 20
133.531471954
 30
0.000000000
 11
164.406606030
 21
134.248106094
 31
0.000000000
  0
ELLIPSE
  5
A63
330
A02
100
AcDbEntity
  8
VIEW_ISO
100
AcDbEllipse
 10
162.951989482
 20
135.122748879
 30
0.000000000
 11
2.338268590
 21
1.350000000
 31
0.000000000
 40
0.577350269
 41
5.021904894
 42
5.497787144
  0
ELLIPSE
  5
A64
330
A02
100
AcDbEntity
  8
VIEW_ISO
100
AcDbEllipse
 10
162.951989482
 20
135.122748879
 30
0.000000000
 11
2.338268590
 21
1.350000000
 31
0.000000000
 40
0.577350269
 41
5.497787144
 42
5.973669393
  0
LINE
  5
A65
330
A02
100
AcDbEntity
  8
VIEW_ISO
100
AcDbLine
 10
165.416556524
 20
135.997391663
 30
0.000000000
 11
165.646428199
 21
136.395541085
 31
0.000000000
  0
LINE
  5
A66
330
A02
100
AcDbEntity
  8
VIEW_ISO
100
AcDbLine
 10
165.646428199
 20
136.395541085
 30
0.000000000
 11
173.484795376
 21
136.395541085
 31
0.000000000
  0
LINE
  5
A67
330
A02
100
AcDbEntity
  8
VIEW_ISO
100
AcDbLine
 10
173.484795376
 20
136.395541085
 30
0.000000000
 11
176.424183068
 21
141.486709909
 31
0.000000000
  0
ELLIPSE
  5
A68
330
A02
100
AcDbEntity
  8
VIEW_ISO
100
AcDbEllipse
 10
198.469590753
 20
137.244069222
 30
0.000000000
 11
1.714730299
 21
0.990000000
 31
0.000000000
 40
0.577350269
 41
5.497787144
 42
0.000000000
  0
ELLIPSE
  5
A69
330
A02
100
AcDbEntity
  8
VIEW_ISO
100
AcDbEllipse
 10
198.469590753
 20
137.244069222
 30
0.000000000
 11
1.714730299
 21
0.990000000
 31
0.000000000
 40
0.577350269
 41
0.000000000
 42
3.141592654
  0
ELLIPSE
  5
A6A
330
A02
100
AcDbEntity
  8
VIEW_ISO
100
AcDbEllipse
 10
198.469590753
 20
137.244069222
 30
0.000000000
 11
1.714730299
 21
0.990000000
 31
0.000000000
 40
0.577350269
 41
3.141592654
 42
5.497787144
  0
LINE
  5
A6B
330
A02
100
AcDbEntity
  8
VIEW_ISO
100
AcDbLine
 10
152.174234614
 20
136.819805153
 30
0.000000000
 11
153.398979486
 21
134.698484810
 31
0.000000000
  0
LINE
  5
A6C
330
A02
100
AcDbEntity
  8
VIEW_ISO
100
AcDbLine
 10
164.666632302
 20
141.486709909
 30
0.000000000
 11
152.174234614
 21
136.819805153
 31
0.000000000
  0
LINE
  5
A6D
330
A02
100
AcDbEntity
  8
VIEW_ISO
100
AcDbLine
 10
166.792663582
 20
112.212489168
 30
0.000000000
 11
170.466898196
 21
105.848528137
 31
0.000000000
  0
ELLIPSE
  5
A6E
330
A02
100
AcDbEntity
  8
VIEW_ISO
100
AcDbEllipse
 10
143.356071540
 20
113.909545443
 30
0.000000000
 11
25.980762114
 21
15.000000000
 31
0.000000000
 40
0.577350269
 41
0.880979237
 42
3.141592654
  0
ELLIPSE
  5
A6F
330
A02
100
AcDbEntity
  8
VIEW_ISO
100
AcDbEllipse
 10
143.356071540
 20
113.909545443
 30
0.000000000
 11
25.980762114
 21
15.000000000
 31
0.000000000
 40
0.577350269
 41
3.141592654
 42
5.417701564
  0
LINE
  5
A70
330
A02
100
AcDbEntity
  8
VIEW_ISO
100
AcDbLine
 10
176.883926420
 20
105.848528137
 30
0.000000000
 11
178.903827407
 21
105.848528137
 31
0.000000000
  0
LINE
  5
A71
330
A02
100
AcDbEntity
  8
VIEW_ISO
100
AcDbLine
 10
165.156530251
 20
114.333809512
 30
0.000000000
 11
166.381275122
 21
112.212489168
 31
0.000000000
  0
LINE
  5
A72
330
A02
100
AcDbEntity
  8
VIEW_ISO
100
AcDbLine
 10
166.792663582
 20
112.212489168
 30
0.000000000
 11
166.381275122
 21
112.212489168
 31
0.000000000
  0
ELLIPSE
  5
A73
330
A02
100
AcDbEntity
  8
VIEW_ISO
100
AcDbEllipse
 10
143.356071540
 20
113.909545443
 30
0.000000000
 11
10.392304845
 21
6.000000000
 31
0.000000000
 40
0.577350269
 41
5.497787144
 42
0.000000000
  0
ELLIPSE
  5
A74
330
A02
100
AcDbEntity
  8
VIEW_ISO
100
AcDbEllipse
 10
143.356071540
 20
113.909545443
 30
0.000000000
 11
10.392304845
 21
6.000000000
 31
0.000000000
 40
0.577350269
 41
0.000000000
 42
3.141592654
  0
ELLIPSE
  5
A75
330
A02
100
AcDbEntity
  8
VIEW_ISO
100
AcDbEllipse
 10
143.356071540
 20
113.909545443
 30
0.000000000
 11
10.392304845
 21
6.000000000
 31
0.000000000
 40
0.577350269
 41
3.141592654
 42
5.497787144
  0
ELLIPSE
  5
A76
330
A02
100
AcDbEntity
  8
VIEW_ISO
100
AcDbEllipse
 10
143.356071540
 20
113.909545443
 30
0.000000000
 11
25.980762114
 21
15.000000000
 31
0.000000000
 40
0.577350269
 41
5.634833861
 42
0.000000000
  0
ELLIPSE
  5
A77
330
A02
100
AcDbEntity
  8
VIEW_ISO
100
AcDbEllipse
 10
143.356071540
 20
113.909545443
 30
0.000000000
 11
25.980762114
 21
15.000000000
 31
0.000000000
 40
0.577350269
 41
0.000000000
 42
0.705312583
  0
LINE
  5
A78
330
A02
100
AcDbEntity
  8
VIEW_ISO
100
AcDbLine
 10
157.318163074
 20
134.698484810
 30
0.000000000
 11
157.523857304
 21
135.054757667
 31
0.000000000
  0
LINE
  5
A79
330
A02
100
AcDbEntity
  8
VIEW_ISO
100
AcDbLine
 10
156.093418203
 20
136.819805153
 30
0.000000000
 11
157.318163074
 21
134.698484810
 31
0.000000000
  0
LINE
  5
A7A
330
A02
100
AcDbEntity
  8
VIEW_ISO
100
AcDbLine
 10
168.585815891
 20
141.486709909
 30
0.000000000
 11
156.093418203
 21
136.819805153
 31
0.000000000
  0
LINE
  5
A7B
330
A02
100
AcDbEntity
  8
VIEW_ISO
100
AcDbLine
 10
165.646428199
 20
136.395541085
 30
0.000000000
 11
168.585815891
 21
141.486709909
 31
0.000000000
  0
LINE
  5
A7C
330
A02
100
AcDbEntity
  8
VIEW_ISO
100
AcDbLine
 10
164.406606030
 20
134.248106094
 30
0.000000000
 11
165.416556524
 21
135.997391663
 31
0.000000000
  0
LINE
  5
A7D
330
A02
100
AcDbEntity
  8
VIEW_ISO
100
AcDbLine
 10
157.318163074
 20
134.698484810
 30
0.000000000
 11
153.398979486
 21
134.698484810
 31
0.000000000
  0
ELLIPSE
  5
A7E
330
A02
100
AcDbEntity
  8
VIEW_ISO
100
AcDbEllipse
 10
131.108622826
 20
113.909545443
 30
0.000000000
 11
1.558845727
 21
0.900000000
 31
0.000000000
 40
0.577350269
 41
5.497787144
 42
0.000000000
  0
ELLIPSE
  5
A7F
330
A02
100
AcDbEntity
  8
VIEW_ISO
100
AcDbEllipse
 10
131.108622826
 20
113.909545443
 30
0.000000000
 11
1.558845727
 21
0.900000000
 31
0.000000000
 40
0.577350269
 41
0.000000000
 42
3.141592654
  0
ELLIPSE
  5
A80
330
A02
100
AcDbEntity
  8
VIEW_ISO
100
AcDbEllipse
 10
131.108622826
 20
113.909545443
 30
0.000000000
 11
1.558845727
 21
0.900000000
 31
0.000000000
 40
0.577350269
 41
3.141592654
 42
5.497787144
  0
ELLIPSE
  5
A81
330
A02
100
AcDbEntity
  8
VIEW_ISO
100
AcDbEllipse
 10
155.603520254
 20
113.909545443
 30
0.000000000
 11
1.558845727
 21
0.900000000
 31
0.000000000
 40
0.577350269
 41
5.497787144
 42
0.000000000
  0
ELLIPSE
  5
A82
330
A02
100
AcDbEntity
  8
VIEW_ISO
100
AcDbEllipse
 10
155.603520254
 20
113.909545443
 30
0.000000000
 11
1.558845727
 21
0.900000000
 31
0.000000000
 40
0.577350269
 41
0.000000000
 42
3.141592654
  0
ELLIPSE
  5
A83
330
A02
100
AcDbEntity
  8
VIEW_ISO
100
AcDbEllipse
 10
155.603520254
 20
113.909545443
 30
0.000000000
 11
1.558845727
 21
0.900000000
 31
0.000000000
 40
0.577350269
 41
3.141592654
 42
5.497787144
  0
LINE
  5
A84
330
A02
100
AcDbEntity
  8
VIEW_ISO
100
AcDbLine
 10
152.174234614
 20
136.819805153
 30
0.000000000
 11
156.093418203
 21
136.819805153
 31
0.000000000
  0
LINE
  5
A85
330
A02
100
AcDbEntity
  8
VIEW_ISO
100
AcDbLine
 10
168.585815891
 20
141.486709909
 30
0.000000000
 11
164.666632302
 21
141.486709909
 31
0.000000000
  0
LINE
  5
A86
330
A02
100
AcDbEntity
  8
VIEW_ISO
100
AcDbLine
 10
117.375309427
 20
98.909545443
 30
0.000000000
 11
121.049544041
 21
92.545584412
 31
0.000000000
  0
LINE
  5
A87
330
A02
100
AcDbEntity
  8
VIEW_ISO
100
AcDbLine
 10
169.336833654
 20
128.909545443
 30
0.000000000
 11
173.011068268
 21
122.545584412
 31
0.000000000
  0
LINE
  5
A88
330
A02
100
AcDbEntity
  8
VIEW_SECTION_AA
100
AcDbLine
 10
135.700000000
 20
169.000000000
 30
0.000000000
 11
145.300000000
 21
169.000000000
 31
0.000000000
  0
LINE
  5
A89
330
A02
100
AcDbEntity
  8
VIEW_SECTION_AA
100
AcDbLine
 10
145.300000000
 20
153.400000000
 30
0.000000000
 11
145.300000000
 21
145.000000000
 31
0.000000000
  0
SPLINE
  5
A8A
330
A02
100
AcDbEntity
  8
VIEW_SECTION_AA
100
AcDbSpline
210
0
220
0
230
1
 70
8
 71
1
 72
17
 73
15
 74
0
 40
1.570796327
 40
1.570796327
 40
1.795195802
 40
2.019595277
 40
2.243994753
 40
2.468394228
 40
2.692793703
 40
2.917193178
 40
3.141592654
 40
3.365992129
 40
3.590391604
 40
3.814791079
 40
4.039190555
 40
4.263590030
 40
4.487989505
 40
4.712388980
 40
4.712388980
 10
145.300000000
 20
153.400000000
 30
0.000000000
 10
145.300000000
 20
153.490259516
 30
0.000000000
 10
145.300000000
 20
153.756512076
 30
0.000000000
 10
145.300000000
 20
154.185406663
 30
0.000000000
 10
145.300000000
 20
154.755436713
 30
0.000000000
 10
145.300000000
 20
155.438018539
 30
0.000000000
 10
145.300000000
 20
156.198924638
 30
0.000000000
 10
145.300000000
 20
157.000000000
 30
0.000000000
 10
145.300000000
 20
157.801075362
 30
0.000000000
 10
145.300000000
 20
158.561981461
 30
0.000000000
 10
145.300000000
 20
159.244563287
 30
0.000000000
 10
145.300000000
 20
159.814593337
 30
0.000000000
 10
145.300000000
 20
160.243487924
 30
0.000000000
 10
145.300000000
 20
160.509740484
 30
0.000000000
 10
145.300000000
 20
160.600000000
 30
0.000000000
  0
LINE
  5
A8B
330
A02
100
AcDbEntity
  8
VIEW_SECTION_AA
100
AcDbLine
 10
145.300000000
 20
169.000000000
 30
0.000000000
 11
145.300000000
 21
160.600000000
 31
0.000000000
  0
LINE
  5
A8C
330
A02
100
AcDbEntity
  8
VIEW_SECTION_AA
100
AcDbLine
 10
135.700000000
 20
160.600000000
 30
0.000000000
 11
145.300000000
 21
160.600000000
 31
0.000000000
  0
LINE
  5
A8D
330
A02
100
AcDbEntity
  8
VIEW_SECTION_AA
100
AcDbLine
 10
135.700000000
 20
169.000000000
 30
0.000000000
 11
135.700000000
 21
160.600000000
 31
0.000000000
  0
LINE
  5
A8E
330
A02
100
AcDbEntity
  8
VIEW_SECTION_AA
100
AcDbLine
 10
135.700000000
 20
41.000000000
 30
0.000000000
 11
135.700000000
 21
50.600000000
 31
0.000000000
  0
SPLINE
  5
A8F
330
A02
100
AcDbEntity
  8
VIEW_SECTION_AA
100
AcDbSpline
210
0
220
0
230
1
 70
8
 71
2
 72
30
 73
27
 74
0
 40
2.411864997
 40
2.411864997
 40
2.411864997
 40
2.576188139
 40
2.576188139
 40
2.740511281
 40
2.740511281
 40
2.904834422
 40
2.904834422
 40
3.233480706
 40
3.233480706
 40
3.397803847
 40
3.397803847
 40
3.562126989
 40
3.562126989
 40
3.726450131
 40
3.726450131
 40
3.890773272
 40
3.890773272
 40
4.055096414
 40
4.055096414
 40
4.219419555
 40
4.219419555
 40
4.383742697
 40
4.383742697
 40
4.548065839
 40
4.548065839
 40
4.712388980
 40
4.712388980
 40
4.712388980
 10
135.700000000
 20
50.600000000
 30
0.000000000
 10
135.700000000
 20
50.835636643
 30
0.000000000
 10
135.700000000
 20
51.071273286
 30
0.000000000
 10
135.700000000
 20
51.332891218
 30
0.000000000
 10
135.700000000
 20
51.594509150
 30
0.000000000
 10
135.700000000
 20
51.875060021
 30
0.000000000
 10
135.700000000
 20
52.155610892
 30
0.000000000
 10
135.700000000
 20
52.737493317
 30
0.000000000
 10
135.700000000
 20
53.330331674
 30
0.000000000
 10
135.700000000
 20
53.621316889
 30
0.000000000
 10
135.700000000
 20
53.912302103
 30
0.000000000
 10
135.700000000
 20
54.190997975
 30
0.000000000
 10
135.700000000
 20
54.469693846
 30
0.000000000
 10
135.700000000
 20
54.728591919
 30
0.000000000
 10
135.700000000
 20
54.987489993
 30
0.000000000
 10
135.700000000
 20
55.219615195
 30
0.000000000
 10
135.700000000
 20
55.451740396
 30
0.000000000
 10
135.700000000
 20
55.650838951
 30
0.000000000
 10
135.700000000
 20
55.849937506
 30
0.000000000
 10
135.700000000
 20
56.010645421
 30
0.000000000
 10
135.700000000
 20
56.171353337
 30
0.000000000
 10
135.700000000
 20
56.289340919
 30
0.000000000
 10
135.700000000
 20
56.407328500
 30
0.000000000
 10
135.700000000
 20
56.479416999
 30
0.000000000
 10
135.700000000
 20
56.551505498
 30
0.000000000
 10
135.700000000
 20
56.575752749
 30
0.000000000
 10
135.700000000
 20
56.600000000
 30
0.000000000
  0
LINE
  5
A90
330
A02
100
AcDbEntity
  8
VIEW_SECTION_AA
100
AcDbLine
 10
135.700000000
 20
89.000000000
 30
0.000000000
 11
135.700000000
 21
56.600000000
 31
0.000000000
  0
SPLINE
  5
A91
330
A02
100
AcDbEntity
  8
VIEW_SECTION_AA
100
AcDbSpline
210
0
220
0
230
1
 70
8
 71
1
 72
17
 73
15
 74
0
 40
1.570796327
 40
1.570796327
 40
1.795195802
 40
2.019595277
 40
2.243994753
 40
2.468394228
 40
2.692793703
 40
2.917193178
 40
3.141592654
 40
3.365992129
 40
3.590391604
 40
3.814791079
 40
4.039190555
 40
4.263590030
 40
4.487989505
 40
4.712388980
 40
4.712388980
 10
135.700000000
 20
89.000000000
 30
0.000000000
 10
135.700000000
 20
89.401153405
 30
0.000000000
 10
135.700000000
 20
90.584498114
 30
0.000000000
 10
135.700000000
 20
92.490696281
 30
0.000000000
 10
135.700000000
 20
95.024163170
 30
0.000000000
 10
135.700000000
 20
98.057860174
 30
0.000000000
 10
135.700000000
 20
101.439665057
 30
0.000000000
 10
135.700000000
 20
105.000000000
 30
0.000000000
 10
135.700000000
 20
108.560334943
 30
0.000000000
 10
135.700000000
 20
111.942139826
 30
0.000000000
 10
135.700000000
 20
114.975836830
 30
0.000000000
 10
135.700000000
 20
117.509303719
 30
0.000000000
 10
135.700000000
 20
119.415501886
 30
0.000000000
 10
135.700000000
 20
120.598846595
 30
0.000000000
 10
135.700000000
 20
121.000000000
 30
0.000000000
  0
LINE
  5
A92
330
A02
100
AcDbEntity
  8
VIEW_SECTION_AA
100
AcDbLine
 10
135.700000000
 20
153.400000000
 30
0.000000000
 11
135.700000000
 21
121.000000000
 31
0.000000000
  0
SPLINE
  5
A93
330
A02
100
AcDbEntity
  8
VIEW_SECTION_AA
100
AcDbSpline
210
0
220
0
230
1
 70
8
 71
1
 72
17
 73
15
 74
0
 40
1.570796327
 40
1.570796327
 40
1.795195802
 40
2.019595277
 40
2.243994753
 40
2.468394228
 40
2.692793703
 40
2.917193178
 40
3.141592654
 40
3.365992129
 40
3.590391604
 40
3.814791079
 40
4.039190555
 40
4.263590030
 40
4.487989505
 40
4.712388980
 40
4.712388980
 10
135.700000000
 20
153.400000000
 30
0.000000000
 10
135.700000000
 20
153.490259516
 30
0.000000000
 10
135.700000000
 20
153.756512076
 30
0.000000000
 10
135.700000000
 20
154.185406663
 30
0.000000000
 10
135.700000000
 20
154.755436713
 30
0.000000000
 10
135.700000000
 20
155.438018539
 30
0.000000000
 10
135.700000000
 20
156.198924638
 30
0.000000000
 10
135.700000000
 20
157.000000000
 30
0.000000000
 10
135.700000000
 20
157.801075362
 30
0.000000000
 10
135.700000000
 20
158.561981461
 30
0.000000000
 10
135.700000000
 20
159.244563287
 30
0.000000000
 10
135.700000000
 20
159.814593337
 30
0.000000000
 10
135.700000000
 20
160.243487924
 30
0.000000000
 10
135.700000000
 20
160.509740484
 30
0.000000000
 10
135.700000000
 20
160.600000000
 30
0.000000000
  0
LINE
  5
A94
330
A02
100
AcDbEntity
  8
VIEW_SECTION_AA
100
AcDbLine
 10
135.700000000
 20
41.000000000
 30
0.000000000
 11
145.300000000
 21
41.000000000
 31
0.000000000
  0
LINE
  5
A95
330
A02
100
AcDbEntity
  8
VIEW_SECTION_AA
100
AcDbLine
 10
135.700000000
 20
50.600000000
 30
0.000000000
 11
145.300000000
 21
50.600000000
 31
0.000000000
  0
LINE
  5
A96
330
A02
100
AcDbEntity
  8
VIEW_SECTION_AA
100
AcDbLine
 10
135.700000000
 20
50.600000000
 30
0.000000000
 11
145.300000000
 21
50.600000000
 31
0.000000000
  0
LINE
  5
A97
330
A02
100
AcDbEntity
  8
VIEW_SECTION_AA
100
AcDbLine
 10
135.700000000
 20
56.600000000
 30
0.000000000
 11
145.300000000
 21
56.600000000
 31
0.000000000
  0
LINE
  5
A98
330
A02
100
AcDbEntity
  8
VIEW_SECTION_AA
100
AcDbLine
 10
157.300000000
 20
145.000000000
 30
0.000000000
 11
145.300000000
 21
145.000000000
 31
0.000000000
  0
LINE
  5
A99
330
A02
100
AcDbEntity
  8
VIEW_SECTION_AA
100
AcDbLine
 10
157.300000000
 20
145.000000000
 30
0.000000000
 11
157.300000000
 21
121.000000000
 31
0.000000000
  0
LINE
  5
A9A
330
A02
100
AcDbEntity
  8
VIEW_SECTION_AA
100
AcDbLine
 10
135.700000000
 20
121.000000000
 30
0.000000000
 11
157.300000000
 21
121.000000000
 31
0.000000000
  0
LINE
  5
A9B
330
A02
100
AcDbEntity
  8
VIEW_SECTION_AA
100
AcDbLine
 10
135.700000000
 20
153.400000000
 30
0.000000000
 11
145.300000000
 21
153.400000000
 31
0.000000000
  0
LINE
  5
A9C
330
A02
100
AcDbEntity
  8
VIEW_SECTION_AA
100
AcDbLine
 10
135.700000000
 20
89.000000000
 30
0.000000000
 11
157.300000000
 21
89.000000000
 31
0.000000000
  0
LINE
  5
A9D
330
A02
100
AcDbEntity
  8
VIEW_SECTION_AA
100
AcDbLine
 10
157.300000000
 20
89.000000000
 30
0.000000000
 11
157.300000000
 21
65.800000000
 31
0.000000000
  0
LINE
  5
A9E
330
A02
100
AcDbEntity
  8
VIEW_SECTION_AA
100
AcDbLine
 10
161.300000000
 20
65.800000000
 30
0.000000000
 11
157.300000000
 21
65.800000000
 31
0.000000000
  0
LINE
  5
A9F
330
A02
100
AcDbEntity
  8
VIEW_SECTION_AA
100
AcDbLine
 10
145.300000000
 20
41.000000000
 30
0.000000000
 11
161.300000000
 21
65.800000000
 31
0.000000000
  0
LINE
  5
AA0
330
A02
100
AcDbEntity
  8
VIEW_SECTION_AA
100
AcDbLine
 10
145.300000000
 20
41.000000000
 30
0.000000000
 11
145.300000000
 21
56.600000000
 31
0.000000000
  0
SPLINE
  5
AA1
330
A02
100
AcDbEntity
  8
VIEW_SECTION_AA
100
AcDbSpline
210
0
220
0
230
1
 70
8
 71
1
 72
17
 73
15
 74
0
 40
1.570796327
 40
1.570796327
 40
1.795195802
 40
2.019595277
 40
2.243994753
 40
2.468394228
 40
2.692793703
 40
2.917193178
 40
3.141592654
 40
3.365992129
 40
3.590391604
 40
3.814791079
 40
4.039190555
 40
4.263590030
 40
4.487989505
 40
4.712388980
 40
4.712388980
 10
157.300000000
 20
89.000000000
 30
0.000000000
 10
157.300000000
 20
89.401153405
 30
0.000000000
 10
157.300000000
 20
90.584498114
 30
0.000000000
 10
157.300000000
 20
92.490696281
 30
0.000000000
 10
157.300000000
 20
95.024163170
 30
0.000000000
 10
157.300000000
 20
98.057860174
 30
0.000000000
 10
157.300000000
 20
101.439665057
 30
0.000000000
 10
157.300000000
 20
105.000000000
 30
0.000000000
 10
157.300000000
 20
108.560334943
 30
0.000000000
 10
157.300000000
 20
111.942139826
 30
0.000000000
 10
157.300000000
 20
114.975836830
 30
0.000000000
 10
157.300000000
 20
117.509303719
 30
0.000000000
 10
157.300000000
 20
119.415501886
 30
0.000000000
 10
157.300000000
 20
120.598846595
 30
0.000000000
 10
157.300000000
 20
121.000000000
 30
0.000000000
  0
LINE
  5
AA2
330
A02
100
AcDbEntity
  8
VIEW_SECTION_AA
100
AcDbLine
 10
135.700000000
 20
169.000000000
 30
0.000000000
 11
145.300000000
 21
169.000000000
 31
0.000000000
  0
LINE
  5
AA3
330
A02
100
AcDbEntity
  8
VIEW_SECTION_AA
100
AcDbLine
 10
145.300000000
 20
153.400000000
 30
0.000000000
 11
145.300000000
 21
145.000000000
 31
0.000000000
  0
SPLINE
  5
AA4
330
A02
100
AcDbEntity
  8
VIEW_SECTION_AA
100
AcDbSpline
210
0
220
0
230
1
 70
8
 71
1
 72
17
 73
15
 74
0
 40
1.570796327
 40
1.570796327
 40
1.795195802
 40
2.019595277
 40
2.243994753
 40
2.468394228
 40
2.692793703
 40
2.917193178
 40
3.141592654
 40
3.365992129
 40
3.590391604
 40
3.814791079
 40
4.039190555
 40
4.263590030
 40
4.487989505
 40
4.712388980
 40
4.712388980
 10
145.300000000
 20
153.400000000
 30
0.000000000
 10
145.300000000
 20
153.490259516
 30
0.000000000
 10
145.300000000
 20
153.756512076
 30
0.000000000
 10
145.300000000
 20
154.185406663
 30
0.000000000
 10
145.300000000
 20
154.755436713
 30
0.000000000
 10
145.300000000
 20
155.438018539
 30
0.000000000
 10
145.300000000
 20
156.198924638
 30
0.000000000
 10
145.300000000
 20
157.000000000
 30
0.000000000
 10
145.300000000
 20
157.801075362
 30
0.000000000
 10
145.300000000
 20
158.561981461
 30
0.000000000
 10
145.300000000
 20
159.244563287
 30
0.000000000
 10
145.300000000
 20
159.814593337
 30
0.000000000
 10
145.300000000
 20
160.243487924
 30
0.000000000
 10
145.300000000
 20
160.509740484
 30
0.000000000
 10
145.300000000
 20
160.600000000
 30
0.000000000
  0
LINE
  5
AA5
330
A02
100
AcDbEntity
  8
VIEW_SECTION_AA
100
AcDbLine
 10
145.300000000
 20
169.000000000
 30
0.000000000
 11
145.300000000
 21
160.600000000
 31
0.000000000
  0
LINE
  5
AA6
330
A02
100
AcDbEntity
  8
VIEW_SECTION_AA
100
AcDbLine
 10
135.700000000
 20
160.600000000
 30
0.000000000
 11
145.300000000
 21
160.600000000
 31
0.000000000
  0
LINE
  5
AA7
330
A02
100
AcDbEntity
  8
VIEW_SECTION_AA
100
AcDbLine
 10
135.700000000
 20
169.000000000
 30
0.000000000
 11
135.700000000
 21
160.600000000
 31
0.000000000
  0
SPLINE
  5
AA8
330
A02
100
AcDbEntity
  8
VIEW_SECTION_AA
100
AcDbSpline
210
0
220
0
230
1
 70
8
 71
2
 72
30
 73
27
 74
0
 40
2.411864997
 40
2.411864997
 40
2.411864997
 40
2.576188139
 40
2.576188139
 40
2.740511281
 40
2.740511281
 40
2.904834422
 40
2.904834422
 40
3.233480706
 40
3.233480706
 40
3.397803847
 40
3.397803847
 40
3.562126989
 40
3.562126989
 40
3.726450131
 40
3.726450131
 40
3.890773272
 40
3.890773272
 40
4.055096414
 40
4.055096414
 40
4.219419555
 40
4.219419555
 40
4.383742697
 40
4.383742697
 40
4.548065839
 40
4.548065839
 40
4.712388980
 40
4.712388980
 40
4.712388980
 10
135.700000000
 20
50.600000000
 30
0.000000000
 10
135.700000000
 20
50.835636643
 30
0.000000000
 10
135.700000000
 20
51.071273286
 30
0.000000000
 10
135.700000000
 20
51.332891218
 30
0.000000000
 10
135.700000000
 20
51.594509150
 30
0.000000000
 10
135.700000000
 20
51.875060021
 30
0.000000000
 10
135.700000000
 20
52.155610892
 30
0.000000000
 10
135.700000000
 20
52.737493317
 30
0.000000000
 10
135.700000000
 20
53.330331674
 30
0.000000000
 10
135.700000000
 20
53.621316889
 30
0.000000000
 10
135.700000000
 20
53.912302103
 30
0.000000000
 10
135.700000000
 20
54.190997975
 30
0.000000000
 10
135.700000000
 20
54.469693846
 30
0.000000000
 10
135.700000000
 20
54.728591919
 30
0.000000000
 10
135.700000000
 20
54.987489993
 30
0.000000000
 10
135.700000000
 20
55.219615195
 30
0.000000000
 10
135.700000000
 20
55.451740396
 30
0.000000000
 10
135.700000000
 20
55.650838951
 30
0.000000000
 10
135.700000000
 20
55.849937506
 30
0.000000000
 10
135.700000000
 20
56.010645421
 30
0.000000000
 10
135.700000000
 20
56.171353337
 30
0.000000000
 10
135.700000000
 20
56.289340919
 30
0.000000000
 10
135.700000000
 20
56.407328500
 30
0.000000000
 10
135.700000000
 20
56.479416999
 30
0.000000000
 10
135.700000000
 20
56.551505498
 30
0.000000000
 10
135.700000000
 20
56.575752749
 30
0.000000000
 10
135.700000000
 20
56.600000000
 30
0.000000000
  0
LINE
  5
AA9
330
A02
100
AcDbEntity
  8
VIEW_SECTION_AA
100
AcDbLine
 10
135.700000000
 20
89.000000000
 30
0.000000000
 11
135.700000000
 21
56.600000000
 31
0.000000000
  0
SPLINE
  5
AAA
330
A02
100
AcDbEntity
  8
VIEW_SECTION_AA
100
AcDbSpline
210
0
220
0
230
1
 70
8
 71
1
 72
17
 73
15
 74
0
 40
1.570796327
 40
1.570796327
 40
1.795195802
 40
2.019595277
 40
2.243994753
 40
2.468394228
 40
2.692793703
 40
2.917193178
 40
3.141592654
 40
3.365992129
 40
3.590391604
 40
3.814791079
 40
4.039190555
 40
4.263590030
 40
4.487989505
 40
4.712388980
 40
4.712388980
 10
135.700000000
 20
89.000000000
 30
0.000000000
 10
135.700000000
 20
89.401153405
 30
0.000000000
 10
135.700000000
 20
90.584498114
 30
0.000000000
 10
135.700000000
 20
92.490696281
 30
0.000000000
 10
135.700000000
 20
95.024163170
 30
0.000000000
 10
135.700000000
 20
98.057860174
 30
0.000000000
 10
135.700000000
 20
101.439665057
 30
0.000000000
 10
135.700000000
 20
105.000000000
 30
0.000000000
 10
135.700000000
 20
108.560334943
 30
0.000000000
 10
135.700000000
 20
111.942139826
 30
0.000000000
 10
135.700000000
 20
114.975836830
 30
0.000000000
 10
135.700000000
 20
117.509303719
 30
0.000000000
 10
135.700000000
 20
119.415501886
 30
0.000000000
 10
135.700000000
 20
120.598846595
 30
0.000000000
 10
135.700000000
 20
121.000000000
 30
0.000000000
  0
LINE
  5
AAB
330
A02
100
AcDbEntity
  8
VIEW_SECTION_AA
100
AcDbLine
 10
135.700000000
 20
153.400000000
 30
0.000000000
 11
135.700000000
 21
121.000000000
 31
0.000000000
  0
SPLINE
  5
AAC
330
A02
100
AcDbEntity
  8
VIEW_SECTION_AA
100
AcDbSpline
210
0
220
0
230
1
 70
8
 71
1
 72
17
 73
15
 74
0
 40
1.570796327
 40
1.570796327
 40
1.795195802
 40
2.019595277
 40
2.243994753
 40
2.468394228
 40
2.692793703
 40
2.917193178
 40
3.141592654
 40
3.365992129
 40
3.590391604
 40
3.814791079
 40
4.039190555
 40
4.263590030
 40
4.487989505
 40
4.712388980
 40
4.712388980
 10
135.700000000
 20
153.400000000
 30
0.000000000
 10
135.700000000
 20
153.490259516
 30
0.000000000
 10
135.700000000
 20
153.756512076
 30
0.000000000
 10
135.700000000
 20
154.185406663
 30
0.000000000
 10
135.700000000
 20
154.755436713
 30
0.000000000
 10
135.700000000
 20
155.438018539
 30
0.000000000
 10
135.700000000
 20
156.198924638
 30
0.000000000
 10
135.700000000
 20
157.000000000
 30
0.000000000
 10
135.700000000
 20
157.801075362
 30
0.000000000
 10
135.700000000
 20
158.561981461
 30
0.000000000
 10
135.700000000
 20
159.244563287
 30
0.000000000
 10
135.700000000
 20
159.814593337
 30
0.000000000
 10
135.700000000
 20
160.243487924
 30
0.000000000
 10
135.700000000
 20
160.509740484
 30
0.000000000
 10
135.700000000
 20
160.600000000
 30
0.000000000
  0
LINE
  5
AAD
330
A02
100
AcDbEntity
  8
VIEW_SECTION_AA
100
AcDbLine
 10
135.700000000
 20
56.600000000
 30
0.000000000
 11
145.300000000
 21
56.600000000
 31
0.000000000
  0
LINE
  5
AAE
330
A02
100
AcDbEntity
  8
VIEW_SECTION_AA
100
AcDbLine
 10
157.300000000
 20
145.000000000
 30
0.000000000
 11
145.300000000
 21
145.000000000
 31
0.000000000
  0
LINE
  5
AAF
330
A02
100
AcDbEntity
  8
VIEW_SECTION_AA
100
AcDbLine
 10
157.300000000
 20
145.000000000
 30
0.000000000
 11
157.300000000
 21
121.000000000
 31
0.000000000
  0
LINE
  5
AB0
330
A02
100
AcDbEntity
  8
VIEW_SECTION_AA
100
AcDbLine
 10
135.700000000
 20
121.000000000
 30
0.000000000
 11
157.300000000
 21
121.000000000
 31
0.000000000
  0
LINE
  5
AB1
330
A02
100
AcDbEntity
  8
VIEW_SECTION_AA
100
AcDbLine
 10
135.700000000
 20
153.400000000
 30
0.000000000
 11
145.300000000
 21
153.400000000
 31
0.000000000
  0
LINE
  5
AB2
330
A02
100
AcDbEntity
  8
VIEW_SECTION_AA
100
AcDbLine
 10
135.700000000
 20
89.000000000
 30
0.000000000
 11
157.300000000
 21
89.000000000
 31
0.000000000
  0
LINE
  5
AB3
330
A02
100
AcDbEntity
  8
VIEW_SECTION_AA
100
AcDbLine
 10
157.300000000
 20
89.000000000
 30
0.000000000
 11
157.300000000
 21
65.800000000
 31
0.000000000
  0
LINE
  5
AB4
330
A02
100
AcDbEntity
  8
VIEW_SECTION_AA
100
AcDbLine
 10
161.300000000
 20
65.800000000
 30
0.000000000
 11
157.300000000
 21
65.800000000
 31
0.000000000
  0
LINE
  5
AB5
330
A02
100
AcDbEntity
  8
VIEW_SECTION_AA
100
AcDbLine
 10
145.300000000
 20
41.000000000
 30
0.000000000
 11
161.300000000
 21
65.800000000
 31
0.000000000
  0
LINE
  5
AB6
330
A02
100
AcDbEntity
  8
VIEW_SECTION_AA
100
AcDbLine
 10
145.300000000
 20
41.000000000
 30
0.000000000
 11
145.300000000
 21
56.600000000
 31
0.000000000
  0
SPLINE
  5
AB7
330
A02
100
AcDbEntity
  8
VIEW_SECTION_AA
100
AcDbSpline
210
0
220
0
230
1
 70
8
 71
1
 72
17
 73
15
 74
0
 40
1.570796327
 40
1.570796327
 40
1.795195802
 40
2.019595277
 40
2.243994753
 40
2.468394228
 40
2.692793703
 40
2.917193178
 40
3.141592654
 40
3.365992129
 40
3.590391604
 40
3.814791079
 40
4.039190555
 40
4.263590030
 40
4.487989505
 40
4.712388980
 40
4.712388980
 10
157.300000000
 20
89.000000000
 30
0.000000000
 10
157.300000000
 20
89.401153405
 30
0.000000000
 10
157.300000000
 20
90.584498114
 30
0.000000000
 10
157.300000000
 20
92.490696281
 30
0.000000000
 10
157.300000000
 20
95.024163170
 30
0.000000000
 10
157.300000000
 20
98.057860174
 30
0.000000000
 10
157.300000000
 20
101.439665057
 30
0.000000000
 10
157.300000000
 20
105.000000000
 30
0.000000000
 10
157.300000000
 20
108.560334943
 30
0.000000000
 10
157.300000000
 20
111.942139826
 30
0.000000000
 10
157.300000000
 20
114.975836830
 30
0.000000000
 10
157.300000000
 20
117.509303719
 30
0.000000000
 10
157.300000000
 20
119.415501886
 30
0.000000000
 10
157.300000000
 20
120.598846595
 30
0.000000000
 10
157.300000000
 20
121.000000000
 30
0.000000000
  0
ENDSEC
  0
SECTION
  2
OBJECTS
  0
DICTIONARY
  5
F000
330
0
100
AcDbDictionary
  3
ACAD_GROUP
350
F001
  0
DICTIONARY
  5
F001
330
F000
100
AcDbDictionary
  0
ENDSEC
  0
EOF